<svg xmlns="http://www.w3.org/2000/svg" width="20" height="15" viewBox="0 0 20 15" fill="none"><style>.a{fill:white;}</style><g clip-path="url(#clip0)"><path d="M18.1 0.9H1.9C0.9 0.9 0 1.8 0 2.8V13C0 14.1 0.9 14.9 1.9 14.9H18.1C19.1 14.9 20 14.1 20 13V2.8C20 1.8 19.1 0.9 18.1 0.9Z" fill="#FFA200"/><path d="M17.1 7.8H16.9V7H17.1C17.4 7 17.6 7.2 17.6 7.4 17.6 7.7 17.4 7.8 17.1 7.8ZM18.1 7.4C18.1 6.9 17.8 6.6 17.2 6.6H16.4V9.2H16.9V8.2H17L17.7 9.2H18.3L17.5 8.1C17.9 8.1 18.1 7.8 18.1 7.4ZM14.6 9.2H16.1V8.8H15.1V8.1H16V7.6H15.1V7.1H16.1V6.6H14.6V9.2ZM13.1 8.4L12.4 6.6H11.9L13 9.3H13.3L14.4 6.6H13.8L13.1 8.4ZM7 7.9C7 8.7 7.6 9.3 8.3 9.3 8.6 9.3 8.8 9.2 9 9.1V8.6C8.9 8.7 8.6 8.8 8.4 8.8 7.9 8.8 7.5 8.5 7.5 8V8C7.5 7.5 7.9 7.1 8.4 7.1 8.6 7.1 8.9 7.2 9 7.4V6.8C8.8 6.7 8.6 6.6 8.4 6.6 7.6 6.6 7 7.2 7 7.9ZM6 7.6C5.7 7.5 5.6 7.4 5.6 7.3 5.7 7.1 5.8 7 6 7 6.2 7 6.3 7.1 6.4 7.2L6.7 6.9C6.5 6.7 6.2 6.6 5.9 6.6 5.5 6.5 5.2 6.9 5.1 7.3V7.3C5.1 7.6 5.3 7.9 5.8 8 5.9 8 6 8.1 6.1 8.1 6.2 8.2 6.3 8.3 6.3 8.4 6.3 8.6 6.1 8.8 5.9 8.8H5.9C5.6 8.8 5.4 8.6 5.3 8.4L5 8.8C5.2 9.1 5.6 9.3 5.9 9.3 6.4 9.3 6.8 8.9 6.8 8.5V8.4C6.8 8 6.6 7.9 6 7.6ZM4.3 9.2H4.8V6.6H4.3V9.2ZM3.3 8.6C3.1 8.7 2.8 8.8 2.6 8.8H2.4V7.1H2.6C2.8 7 3.1 7.1 3.3 7.3 3.4 7.4 3.5 7.7 3.5 7.9 3.5 8.2 3.4 8.4 3.3 8.6ZM2.7 6.6H1.9V9.2H2.7C3 9.3 3.3 9.1 3.6 8.9 3.9 8.7 4.1 8.3 4.1 7.9 4.1 7.2 3.5 6.7 2.8 6.6H2.7ZM10.5 6.6C9.8 6.6 9.2 7.1 9.2 7.9 9.2 8.6 9.8 9.3 10.5 9.3 11.3 9.3 11.9 8.7 12 7.9 11.9 7.2 11.3 6.6 10.5 6.6Z" class="a"/></g><defs><clipPath><rect width="20" height="14" class="a"/></clipPath></defs></svg>