<svg width="24" height="24" viewBox="0 0 24 24" fill="none" xmlns="http://www.w3.org/2000/svg">
<path d="M22.6667 0H1.33333C0.979711 0 0.640573 0.140476 0.390524 0.390524C0.140476 0.640573 0 0.979711 0 1.33333L0 22.6667C0 23.0203 0.140476 23.3594 0.390524 23.6095C0.640573 23.8595 0.979711 24 1.33333 24H12.82V14.72H9.70333V11.0867H12.82V8.42C12.82 5.32 14.7133 3.63333 17.4867 3.63333C18.4197 3.63061 19.3522 3.67845 20.28 3.77667V7H18.36C16.86 7 16.57 7.71333 16.57 8.76333V11.0767H20.1667L19.7 14.71H16.57V24H22.6667C23.0203 24 23.3594 23.8595 23.6095 23.6095C23.8595 23.3594 24 23.0203 24 22.6667V1.33333C24 0.979711 23.8595 0.640573 23.6095 0.390524C23.3594 0.140476 23.0203 0 22.6667 0V0Z" fill="white"/>
</svg>
