<svg xmlns="http://www.w3.org/2000/svg" width="24" height="18" viewBox="0 0 24 18" fill="none"><path d="M21.7 0H2.3C1 0 0 1.1 0 2.4V15.6C0 16.9 1 18 2.3 18H21.7C23 18 24 16.9 24 15.6V2.4C24 1.1 23 0 21.7 0Z" fill="#224DBA"/><path d="M8.2 12H6.8L5.7 7.7C5.7 7.5 5.6 7.3 5.4 7.2 5 7 4.6 6.9 4.1 6.8V6.6H6.4C6.7 6.6 6.9 6.9 7 7.1L7.5 10.3 8.9 6.6H10.3L8.2 12ZM11.1 12H9.7L10.8 6.6H12.2L11.1 12ZM13.9 8.1C13.9 7.8 14.2 7.6 14.4 7.6 14.9 7.6 15.3 7.7 15.7 7.9L16 6.7C15.6 6.6 15.1 6.5 14.7 6.5 13.5 6.5 12.5 7.2 12.5 8.3 12.5 9.1 13.2 9.5 13.6 9.7 14.2 10 14.3 10.1 14.3 10.4 14.3 10.8 13.9 10.9 13.5 10.9 13.1 10.9 12.6 10.8 12.2 10.6L11.9 11.8C12.4 12 12.9 12 13.4 12 14.8 12.1 15.7 11.3 15.7 10.2 15.7 8.8 13.9 8.7 13.9 8.1ZM20.4 12L19.3 6.6H18.2C17.9 6.6 17.7 6.8 17.6 7L15.7 12H17L17.3 11.2H19L19.2 12H20.4ZM18.4 8.1L18.8 10.1H17.7L18.4 8.1Z" fill="white"/></svg>
