<svg width="100%" height="100%" viewBox="0 0 18 18" fill="none" xmlns="http://www.w3.org/2000/svg">
<path d="M8.71636 15.2618L1.51636 8.06182C1.18182 7.72727 1 7.28364 1 6.81818C1 6.35273 1.18182 5.90909 1.51636 5.57455L5.57455 1.51636C5.90909 1.18182 6.35273 1 6.81818 1C7.28364 1 7.72727 1.18182 8.06182 1.51636L15.5455 9V11.6618V12.6364L14.8036 13.3782L13.3709 14.8109" stroke="#526679" stroke-width="1.5" stroke-miterlimit="10" stroke-linecap="round" stroke-linejoin="round"/>
<path d="M11.9091 13.3637C12.7124 13.3637 13.3637 12.7125 13.3637 11.9091C13.3637 11.1058 12.7124 10.4546 11.9091 10.4546C11.1058 10.4546 10.4546 11.1058 10.4546 11.9091C10.4546 12.7125 11.1058 13.3637 11.9091 13.3637Z" fill="#526679"/>
<path d="M11.9091 11.9091L12.1127 13.3491L12.3527 14.9927C12.3818 15.1891 12.4327 15.3709 12.5055 15.5454C12.8545 16.4109 13.6982 17 14.6655 17C15.3127 17 15.8945 16.7381 16.3164 16.3163C16.7382 15.8945 17 15.3127 17 14.6654C17 13.6981 16.4109 12.8545 15.5455 12.5054" stroke="#526679" stroke-width="1.5" stroke-miterlimit="10" stroke-linecap="round" stroke-linejoin="round"/>
</svg>
