<svg xmlns="http://www.w3.org/2000/svg" width="24" height="24" viewBox="0 0 24 24" fill="none"><style>.a{fill:#0072C6;}</style><g clip-path="url(#clip0)"><path d="M14.9 5.1V9.8L16.5 10.8C16.5 10.8 16.6 10.8 16.7 10.8L23.7 6.1C23.7 5.5 23.2 5.1 22.9 5.1H14.9Z" class="a"/><path d="M14.9 11.5L16.4 12.6C16.6 12.7 16.8 12.6 16.8 12.6 16.6 12.7 23.7 8 23.7 8V16.6C23.7 17.5 23.1 17.9 22.5 17.9H14.9V11.5H14.9Z" class="a"/><path d="M7.1 9.4C6.6 9.4 6.2 9.6 5.9 10.1 5.6 10.6 5.4 11.2 5.4 12 5.4 12.8 5.6 13.4 5.9 13.9 6.2 14.4 6.6 14.6 7.1 14.6 7.6 14.6 8 14.4 8.3 13.9 8.6 13.5 8.7 12.8 8.7 12 8.7 11.2 8.6 10.5 8.3 10.1 8 9.6 7.6 9.4 7.1 9.4Z" class="a"/><path d="M0 2.7V21.1L14 24V0L0 2.7ZM9.3 15C8.8 15.8 8 16.2 7 16.2 6.1 16.2 5.4 15.8 4.8 15 4.2 14.3 3.9 13.3 3.9 12.1 3.9 10.8 4.2 9.8 4.8 9 5.4 8.2 6.2 7.8 7.1 7.8 8.1 7.8 8.8 8.2 9.4 8.9 9.9 9.7 10.2 10.7 10.2 11.9 10.2 13.2 9.9 14.2 9.3 15Z" class="a"/></g><defs><clipPath><rect width="24" height="24" fill="white"/></clipPath></defs></svg>
