<svg xmlns="http://www.w3.org/2000/svg" width="32" height="32" viewBox="0 0 32 32" fill="none"><style>.a{stroke-linejoin:round;stroke-width:1.5;stroke:#53BC6A;}.b{fill:#53BC6A;stroke-linejoin:round;stroke-width:1.5;stroke:#53BC6A;}</style><path d="M10.2 12.8H9.6C9.3 12.8 9.1 12.8 8.8 12.7 7 12.4 5.6 10.7 5.6 8.8V5C5.6 2.8 7.4 1 9.6 1H10.9C13 1 14.8 2.7 14.9 4.9" class="a"/><path d="M10.2 12.8C9.8 12.8 9.3 12.8 8.8 12.9 6.3 13.2 4 14.1 1.9 15.7 1.4 16.1 1 16.8 1 17.6V22.7C1 24 2 25.1 3.3 25.1H7.5" class="a"/><path d="M21.8 18.7C20.9 18.7 20.1 18.7 19.5 18.5V18.1C20.1 18.5 20.9 18.7 21.8 18.7Z" class="b"/><path d="M17.1 14V11.6C17.1 11.6 17.1 14 14.8 15.2 14.8 15.2 16 18.7 21.8 18.7 19.2 18.7 17.1 16.6 17.1 14Z" class="b"/><path d="M24.1 11.6C24.9 11.6 25.7 11.4 26.3 11 26 8.7 24.1 6.9 21.8 6.9 20.9 6.9 20.2 7.1 19.5 7.5 19.8 9.8 21.7 11.6 24.1 11.6Z" class="b"/><path d="M26.4 11.6V14C26.4 15.3 25.9 16.5 25 17.3 24.2 18.2 23 18.7 21.8 18.7 27.5 18.7 28.7 15.2 28.7 15.2 26.4 14 26.4 11.6 26.4 11.6Z" class="b"/><path d="M26.4 11.6V14C26.4 15.3 25.9 16.5 25 17.3 24.2 18.2 23 18.7 21.8 18.7 19.2 18.7 17.1 16.6 17.1 14V11.6C17.1 9.9 18.1 8.3 19.5 7.5 19.8 9.9 21.7 11.6 24.1 11.6 24.9 11.6 25.7 11.4 26.3 11 26.4 11.2 26.4 11.4 26.4 11.6Z" class="a"/><path d="M12.5 28.6V23.5C12.5 22.7 12.9 22 13.5 21.6 15.9 19.7 18.8 18.7 21.8 18.7 24.8 18.7 27.7 19.7 30.1 21.6 30.7 22 31 22.7 31 23.5V28.6C31 30 30 31 28.7 31H14.9C13.6 31 12.5 29.9 12.5 28.6Z" class="a"/></svg>
