<svg xmlns="http://www.w3.org/2000/svg" width="20" height="15" viewBox="0 0 20 15" fill="none"><path d="M18.1 0.9H1.9C0.8 0.9 0 1.8 0 2.8V13.1C0 14.1 0.8 14.9 1.9 14.9H18.1C19.2 14.9 20 14.1 20 13.1V2.8C20 1.8 19.2 0.9 18.1 0.9Z" fill="#353A48"/><path d="M10.1 10.9C9.4 11.5 8.5 11.9 7.6 11.9 5.4 11.9 3.7 10.1 3.7 8 3.7 5.9 5.4 4.1 7.6 4.1 8.5 4.1 9.4 4.5 10.1 5.1 10.8 4.5 11.7 4.1 12.6 4.1 14.8 4.1 16.5 5.9 16.5 8 16.5 10.1 14.8 11.9 12.6 11.9 11.7 11.9 10.8 11.5 10.1 10.9Z" fill="#FF5E00"/><path d="M10.1 10.9C9.4 11.5 8.5 11.9 7.6 11.9 5.4 11.9 3.7 10.1 3.7 8 3.7 5.9 5.4 4.1 7.6 4.1 8.5 4.1 9.4 4.5 10.1 5.1 9.3 5.8 8.7 6.8 8.7 8 8.7 9.2 9.3 10.2 10.1 10.9Z" fill="#ED0006"/><path d="M10.1 5.1C10.8 4.5 11.7 4.1 12.6 4.1 14.8 4.1 16.5 5.9 16.5 8 16.5 10.1 14.8 11.9 12.6 11.9 11.7 11.9 10.8 11.5 10.1 10.9 10.9 10.2 11.5 9.2 11.5 8 11.5 6.8 10.9 5.8 10.1 5.1Z" fill="#F9A000"/></svg>