<svg xmlns="http://www.w3.org/2000/svg" width="24" height="18" viewBox="0 0 24 18" fill="none"><path d="M21.7 0H2.3C1 0 0 1.1 0 2.4V15.6C0 16.9 1 18 2.3 18H21.7C23 18 24 16.9 24 15.6V2.4C24 1.1 23 0 21.7 0Z" fill="#FFA200"/><path d="M20.5 8.9H20.3V7.9H20.5C20.9 7.9 21.1 8 21.1 8.3 21.1 8.7 20.9 8.9 20.5 8.9ZM21.7 8.3C21.7 7.7 21.3 7.3 20.6 7.3H19.7V10.7H20.3V9.3H20.4L21.2 10.7H22L21 9.3C21.4 9.2 21.8 8.8 21.7 8.3ZM17.6 10.7H19.3V10.1H18.2V9.2H19.3V8.6H18.2V7.9H19.3V7.3H17.6V10.7ZM15.7 9.6L14.9 7.3H14.2L15.6 10.7H15.9L17.3 7.3H16.6L15.7 9.6ZM8.4 9C8.4 10 9.1 10.7 10 10.7 10.3 10.7 10.5 10.7 10.8 10.6V9.8C10.6 10 10.4 10.2 10.1 10.2 9.5 10.2 9 9.7 9 9.1V9.1C9 8.5 9.5 7.9 10 7.9 10.3 7.9 10.6 8 10.8 8.3V7.5C10.6 7.4 10.3 7.3 10 7.3 9.1 7.3 8.4 8 8.4 9ZM7.2 8.6C6.9 8.5 6.8 8.4 6.8 8.2 6.8 8 7 7.8 7.2 7.8 7.4 7.8 7.6 7.9 7.7 8.1L8 7.6C7.8 7.4 7.5 7.3 7.1 7.3 6.6 7.2 6.2 7.6 6.2 8.2V8.2C6.2 8.6 6.3 8.9 6.9 9.1 7.1 9.1 7.2 9.2 7.4 9.3 7.5 9.4 7.5 9.5 7.5 9.6 7.5 9.9 7.3 10.1 7.1 10.1H7.1C6.8 10.1 6.5 9.9 6.4 9.7L6 10.1C6.2 10.5 6.7 10.7 7.1 10.7 7.7 10.7 8.2 10.3 8.2 9.7V9.6C8.2 9.1 8 8.9 7.2 8.6ZM5.1 10.7H5.8V7.3H5.1V10.7ZM3.9 9.8C3.7 10 3.4 10.1 3.1 10.1H2.9V7.9H3.1C3.4 7.9 3.7 8 3.9 8.2 4.1 8.4 4.2 8.7 4.2 9 4.2 9.3 4.1 9.6 3.9 9.8ZM3.2 7.3H2.3V10.7H3.2C3.6 10.7 4 10.6 4.3 10.3 4.7 10 4.9 9.5 4.9 9 4.9 8.1 4.2 7.4 3.4 7.3H3.2ZM12.7 7.3C11.7 7.3 11 8 11 9 11 9.9 11.7 10.7 12.7 10.7 13.6 10.8 14.3 10 14.4 9 14.3 8 13.6 7.3 12.7 7.3Z" fill="white"/></svg>
