<svg xmlns="http://www.w3.org/2000/svg" width="18" height="18" viewBox="0 0 18 18" fill="none"><style>.a{stroke-linejoin:round;stroke-width:1.5;stroke:#526679;}</style><path d="M9.3 1C7.3 1 5.6 2.6 5.6 4.6V6.8C5.6 8.8 7.3 10.4 9.3 10.4 11.3 10.4 12.9 8.8 12.9 6.8V4.6C12.9 2.6 11.3 1 9.3 1Z" class="a"/><path d="M14.5 11.8C15 12.1 15.4 12.4 15.8 12.7 16.3 13 16.5 13.6 16.5 14.2V15.1C16.5 16.2 15.7 17 14.7 17H3.8C2.8 17 2 16.2 2 15.1V14.2C2 13.6 2.3 13 2.7 12.7 3.1 12.4 3.6 12.1 4 11.8" class="a"/></svg>
