<svg xmlns="http://www.w3.org/2000/svg" width="20" height="14" viewBox="0 0 20 14" fill="none"><path d="M18.1 0H1.9C0.8 0 0 0.8 0 1.9V12.1C0 13.2 0.8 14 1.9 14H18.1C19.2 14 20 13.2 20 12.1V1.9C20 0.8 19.2 0 18.1 0Z" fill="#2183CB"/><path d="M10.7 11.1H9.3C7.1 11 5.3 9.2 5.3 7 5.2 4.8 6.9 3 9.1 2.9H10.7C13 2.9 14.9 4.7 14.9 7V7C14.8 9.3 13 11.1 10.7 11.1ZM9.4 3.6C7.5 3.6 6 5.2 6 7 6 8.8 7.5 10.4 9.4 10.4 11.2 10.4 12.8 8.8 12.8 7 12.8 5.2 11.2 3.6 9.4 3.6ZM9.9 9.3V4.8C11.2 5.1 11.9 6.3 11.6 7.6 11.4 8.4 10.8 9.1 9.9 9.3ZM8.8 9.3C7.6 8.9 6.8 7.7 7.2 6.4 7.4 5.6 8 5 8.8 4.8V9.3Z" fill="white"/></svg>
