<svg xmlns="http://www.w3.org/2000/svg" width="18" height="18" viewBox="0 0 18 18" fill="none"><path d="M9 17.3C13.6 17.3 17.3 13.6 17.3 9 17.3 4.4 13.6 0.8 9 0.8 4.4 0.8 0.8 4.4 0.8 9 0.8 13.6 4.4 17.3 9 17.3Z" style="stroke-linejoin:round;stroke-width:1.5;stroke:white"/><path d="M9.7 5.1C10 5.5 10.6 5.5 11 5.1 11.4 4.8 11.5 4.2 11.2 3.9 10.8 3.5 10.2 3.5 9.8 3.9 9.4 4.2 9.4 4.8 9.7 5.1ZM8.5 8.6C8.2 9.3 7.8 10.3 7.5 11.3 6.8 13.3 8.9 13.1 10.8 11.4 10.7 11.2 10.6 11.1 10.6 11 10.5 10.9 10.5 10.9 10.5 10.9 9.7 11.7 8.8 12.1 9.1 11.1 9.3 10.5 9.6 9.9 9.9 9 10.1 8.7 10.2 8.4 10.4 8 11.3 5.8 8.6 6.1 7.3 7.6L7.5 8.1C8.7 7 9 7.3 8.8 7.9 8.8 8 8.7 8.3 8.5 8.6Z" fill="white"/></svg>
