<svg xmlns="http://www.w3.org/2000/svg" width="32" height="32" viewBox="0 0 32 32" fill="none"><style>.a{stroke-linejoin:round;stroke-width:1.5;stroke:#006AFF;}</style><path d="M27 28C26.7 29.2 25.7 30 24.5 30 23.3 30 22.3 29.2 22 28H27Z" style="fill:#006AFF;stroke-linejoin:round;stroke-width:1.5;stroke:#006AFF"/><path d="M30.5 25.2L30 24.6C29.7 24.4 29.5 24 29.5 23.7L28.9 19.8C28.6 17.6 26.7 16 24.5 16 22.3 16 20.5 17.6 20.1 19.8L19.5 23.7C19.5 24 19.3 24.4 19 24.6L18.5 25.2C18.3 25.4 18.1 25.6 18.1 25.9 17.8 27 18.6 28 19.7 28H29.3C30.4 28 31.2 27 31 25.9 30.9 25.6 30.7 25.4 30.5 25.2Z" class="a"/><path d="M14 23H8C6.9 23 6 22.1 6 21V7C6 5.9 6.9 5 8 5H26C27.1 5 28 5.9 28 7V17.7" class="a"/><path d="M2 19V3C2 1.9 2.9 1 4 1H24" class="a"/><path d="M6.6 5.6L14.4 13.4C15.8 14.8 18.2 14.8 19.6 13.4L27.4 5.6" class="a"/><path d="M12 17L6.6 22.4" class="a"/></svg>
