<svg width="48" height="48" viewBox="0 0 48 48" fill="none" xmlns="http://www.w3.org/2000/svg">
<g clip-path="url(#clip0)">
<path d="M18.375 14.5746C15.585 18.6846 13.635 22.5846 12.48 25.2246C6.435 20.6646 1.5 19.0296 1.5 19.0296C1.5 19.0296 8.79 11.7396 18.375 14.5746Z" fill="#006AFF" stroke="#006AFF" stroke-width="1.5" stroke-miterlimit="10" stroke-linecap="round" stroke-linejoin="round"/>
<path d="M28.9953 46.5245C28.9953 46.5245 27.3603 41.5895 22.8003 35.5445C25.4403 34.3895 29.3403 32.4395 33.4503 29.6495C36.2853 39.2345 28.9953 46.5245 28.9953 46.5245Z" fill="#006AFF" stroke="#006AFF" stroke-width="1.5" stroke-miterlimit="10" stroke-linecap="round" stroke-linejoin="round"/>
<path d="M26.2501 21.7745L12.4951 35.5295" stroke="#006AFF" stroke-width="1.5" stroke-miterlimit="10" stroke-linecap="round" stroke-linejoin="round"/>
<path d="M34.5002 17.4096C36.6459 17.4096 38.3852 15.6703 38.3852 13.5246C38.3852 11.379 36.6459 9.63965 34.5002 9.63965C32.3546 9.63965 30.6152 11.379 30.6152 13.5246C30.6152 15.6703 32.3546 17.4096 34.5002 17.4096Z" stroke="#006AFF" stroke-width="1.5" stroke-miterlimit="10" stroke-linecap="round" stroke-linejoin="round"/>
<path d="M1.5 46.5245C1.5 46.5245 4.665 27.4895 12.42 29.9345L15.24 32.7845L18.09 35.6045C20.535 43.3595 1.5 46.5245 1.5 46.5245Z" stroke="#006AFF" stroke-width="1.5" stroke-miterlimit="10" stroke-linecap="round" stroke-linejoin="round"/>
<path d="M25.0049 6.53444C33.2549 -1.55056 45.4949 2.52944 45.4949 2.52944C45.4949 2.52944 49.6199 14.9044 41.3699 23.1544C31.7399 32.7694 19.3649 36.8944 19.3649 36.8944L15.2549 32.7694L11.1299 28.6594C11.1299 28.6594 13.3649 21.9394 18.3899 14.5594" stroke="#006AFF" stroke-width="1.5" stroke-miterlimit="10" stroke-linecap="round" stroke-linejoin="round"/>
</g>
<defs>
<clipPath id="clip0">
<rect width="48" height="47.9983" fill="white"/>
</clipPath>
</defs>
</svg>
