<svg xmlns="http://www.w3.org/2000/svg" width="20" height="15" viewBox="0 0 20 15" fill="none"><style>.a{fill:white;}</style><g clip-path="url(#clip0)"><path d="M18.1 0.9H1.9C0.8 0.9 0 1.8 0 2.8V13.1C0 14.1 0.8 14.9 1.9 14.9H18.1C19.2 14.9 20 14.1 20 13.1V2.8C20 1.8 19.2 0.9 18.1 0.9Z" fill="#007ECD"/><path d="M17.6 10.4H16.7V10H17.5C17.5 10 17.7 10 17.7 9.9 17.7 9.7 17.3 9.7 17.3 9.7 17.3 9.7 16.6 9.8 16.6 9.1 16.6 8.5 17.3 8.6 17.3 8.6H18.2V9H17.4C17.4 9 17.2 8.9 17.2 9.1 17.2 9.3 17.5 9.3 17.5 9.3 17.5 9.3 18.3 9.2 18.3 9.8 18.3 10.4 17.8 10.4 17.6 10.4 17.6 10.4 17.6 10.4 17.6 10.4ZM13.2 10.4V8.6H14.7V9H13.7V9.3H14.7V9.7H13.7V10H14.7V10.4H13.2ZM15.8 10.4H15V10H15.7C15.7 10 16 10 16 9.9 16 9.7 15.6 9.7 15.6 9.7 15.6 9.7 14.9 9.8 14.9 9.1 14.9 8.5 15.5 8.6 15.5 8.6H16.5V9H15.7C15.7 9 15.4 8.9 15.4 9.1 15.4 9.3 15.8 9.3 15.8 9.3 15.8 9.3 16.5 9.2 16.5 9.8 16.5 10.4 16.1 10.4 15.9 10.4 15.9 10.4 15.8 10.4 15.8 10.4ZM9.2 10.4H8.7L8.2 9.9 7.7 10.4H7.4 5.9V8.6H7.4 7.7L8.2 9.2 8.8 8.6H9.2V8.6H10.4C10.4 8.6 11 8.5 11 9.1 11 9.7 10.8 9.8 10.1 9.8H9.7V10.4H9.2ZM8.6 9.5L9.2 10.2V8.9L8.6 9.5ZM6.4 10H7.4L7.9 9.5 7.4 9H6.4V9.3H7.4V9.7H6.4V10ZM9.7 9.3H10.2C10.3 9.3 10.4 9.3 10.4 9.2 10.4 9.1 10.3 9 10.2 9H9.7V9.3ZM12.5 10.4V10.1C12.5 10.1 12.4 9.8 12.1 9.8H11.7V10.4H11.2V8.6H12.4C12.4 8.6 13 8.5 13 9.1 13 9.4 12.7 9.6 12.7 9.6 12.7 9.6 12.9 9.7 12.9 10V10.4H12.5ZM11.7 9.3H12.2C12.3 9.3 12.4 9.3 12.4 9.2 12.4 9.1 12.3 9 12.2 9H11.7V9.3ZM11.3 7.9H11.8V6H11.3V7.9ZM7.5 7.9V6H9V6.4H8V6.7H9V7.1H8V7.5H9V7.9H7.5ZM6.7 7.9V6.6L6.1 7.9H5.7L5 6.6V7.9H4.6 4.5 4.1L3.9 7.5H3L2.8 7.9H2.3L3.1 6H3.8L4.5 7.7V6H5.3L5.9 7.1 6.4 6H7.2V7.9H6.7ZM3.2 7H3.7L3.4 6.4 3.2 7ZM16.4 7.9L15.6 6.6V7.9H15.2 15.1 14.6L14.5 7.5H13.6L13.4 7.9H12.9 12.8 12.6C12.6 7.9 11.9 7.8 11.9 7 11.9 5.9 12.7 6 12.7 6L13.3 6V6.4L12.8 6.4C12.8 6.4 12.5 6.4 12.5 6.8 12.5 6.9 12.5 6.9 12.5 7 12.5 7.6 13 7.4 13.1 7.4L13.7 6H14.4L15.1 7.7V6H15.8L16.6 7.2V6H17.1V7.9H16.4ZM13.8 7H14.2L14 6.4 13.8 7ZM10.6 7.9V7.5C10.6 7.5 10.5 7.2 10.2 7.2H9.8V7.9H9.3V6H10.5C10.5 6 11.1 5.9 11.1 6.5 11.1 6.9 10.8 7 10.8 7 10.8 7 11 7.1 11 7.4V7.9H10.6ZM9.8 6.8H10.3C10.4 6.8 10.5 6.7 10.5 6.6 10.5 6.5 10.4 6.4 10.3 6.4H9.8V6.8Z" class="a"/></g><defs><clipPath><rect width="20" height="14" class="a"/></clipPath></defs></svg>