<svg xmlns="http://www.w3.org/2000/svg" width="20" height="14" viewBox="0 0 20 14" fill="none"><path d="M18.1 0H1.9C0.8 0 0 0.8 0 1.9V12.1C0 13.2 0.8 14 1.9 14H18.1C19.2 14 20 13.2 20 12.1V1.9C20 0.8 19.2 0 18.1 0Z" fill="#007ECD"/><path d="M17.6 9.5H16.7V9.1H17.5C17.5 9.1 17.7 9.1 17.7 8.9 17.7 8.8 17.3 8.8 17.3 8.8 17.3 8.8 16.6 8.8 16.6 8.2 16.6 7.6 17.3 7.6 17.3 7.6H18.2V8.1H17.4C17.4 8.1 17.2 8 17.2 8.2 17.2 8.4 17.5 8.3 17.5 8.3 17.5 8.3 18.3 8.3 18.3 8.9 18.3 9.5 17.8 9.5 17.6 9.5 17.6 9.5 17.6 9.5 17.6 9.5ZM13.2 9.5V7.6H14.7V8.1H13.7V8.4H14.7V8.8H13.7V9.1H14.7V9.5H13.2ZM15.8 9.5H15V9.1H15.7C15.7 9.1 16 9.1 16 8.9 16 8.8 15.6 8.8 15.6 8.8 15.6 8.8 14.9 8.8 14.9 8.2 14.9 7.6 15.5 7.6 15.5 7.6H16.5V8.1H15.7C15.7 8.1 15.4 8 15.4 8.2 15.4 8.4 15.8 8.3 15.8 8.3 15.8 8.3 16.5 8.3 16.5 8.9 16.5 9.5 16.1 9.5 15.9 9.5 15.9 9.5 15.8 9.5 15.8 9.5ZM9.2 9.5H8.7L8.2 9 7.7 9.5H7.4 5.9V7.6H7.4 7.7L8.2 8.2 8.8 7.6H9.2V7.6H10.4C10.4 7.6 11 7.6 11 8.2 11 8.7 10.8 8.9 10.1 8.9H9.7V9.5H9.2ZM8.6 8.6L9.2 9.2V7.9L8.6 8.6ZM6.4 9.1H7.4L7.9 8.6 7.4 8.1H6.4V8.4H7.4V8.8H6.4V9.1ZM9.7 8.4H10.2C10.3 8.4 10.4 8.3 10.4 8.2 10.4 8.1 10.3 8.1 10.2 8.1H9.7V8.4ZM12.5 9.5V9.2C12.5 9.2 12.4 8.9 12.1 8.9H11.7V9.5H11.2V7.6H12.4C12.4 7.6 13 7.6 13 8.2 13 8.5 12.7 8.6 12.7 8.6 12.7 8.6 12.9 8.7 12.9 9.1V9.5H12.5ZM11.7 8.4H12.2C12.3 8.4 12.4 8.3 12.4 8.2 12.4 8.1 12.3 8.1 12.2 8.1H11.7V8.4ZM11.3 6.9H11.8V5.1H11.3V6.9ZM7.5 6.9V5.1H9V5.5H8V5.8H9V6.2H8V6.5H9V6.9H7.5ZM6.7 6.9V5.6L6.1 6.9H5.7L5 5.6V6.9H4.6 4.5 4.1L3.9 6.5H3L2.8 6.9H2.3L3.1 5.1H3.8L4.5 6.8V5.1H5.3L5.9 6.2 6.4 5.1H7.2V6.9H6.7ZM3.2 6.1H3.7L3.4 5.5 3.2 6.1ZM16.4 6.9L15.6 5.7V6.9H15.2 15.1 14.6L14.5 6.5H13.6L13.4 6.9H12.9 12.8 12.6C12.6 6.9 11.9 6.8 11.9 6 11.9 5 12.7 5 12.7 5L13.3 5.1V5.5L12.8 5.5C12.8 5.5 12.5 5.5 12.5 5.9 12.5 5.9 12.5 6 12.5 6 12.5 6.7 13 6.5 13.1 6.5L13.7 5.1H14.4L15.1 6.8V5.1H15.8L16.6 6.3V5.1H17.1V6.9H16.4ZM13.8 6.1H14.2L14 5.5 13.8 6.1ZM10.6 6.9V6.6C10.6 6.6 10.5 6.3 10.2 6.3H9.8V6.9H9.3V5.1H10.5C10.5 5.1 11.1 5 11.1 5.6 11.1 5.9 10.8 6 10.8 6 10.8 6 11 6.2 11 6.5V6.9H10.6ZM9.8 5.8H10.3C10.4 5.8 10.5 5.8 10.5 5.7 10.5 5.6 10.4 5.5 10.3 5.5H9.8V5.8Z" fill="white"/></svg>
