<svg width="16" height="14" viewBox="0 0 16 14" fill="none" xmlns="http://www.w3.org/2000/svg">
<path fill-rule="evenodd" clip-rule="evenodd" d="M1.25447 11.4545C0.561618 11.4545 0 12.0244 0 12.7273C0 13.4301 0.561618 14 1.25447 14C1.94733 14 2.50876 13.4301 2.50876 12.7273C2.50876 12.0244 1.94733 11.4545 1.25447 11.4545ZM1.25447 0C0.561618 0 0 0.569872 0 1.27274C0 1.97562 0.561618 2.54549 1.25447 2.54549C1.94733 2.54549 2.50876 1.97562 2.50876 1.27274C2.50876 0.569872 1.94733 0 1.25447 0ZM1.25447 5.81808C0.561618 5.81808 0 6.38795 0 7.09082C0 7.79369 0.561618 8.36356 1.25447 8.36356C1.94733 8.36356 2.50876 7.79369 2.50876 7.09082C2.50876 6.38795 1.94733 5.81808 1.25447 5.81808ZM15.1011 11.8462H5.1333C4.63676 11.8462 4.23443 12.248 4.23443 12.7436C4.23443 13.2392 4.63676 13.641 5.1333 13.641H15.1011C15.5977 13.641 16 13.2392 16 12.7436C16 12.248 15.5977 11.8462 15.1011 11.8462ZM15.1011 6.10256H5.1333C4.63676 6.10256 4.23443 6.50444 4.23443 7C4.23443 7.49556 4.63676 7.89744 5.1333 7.89744H15.1011C15.5977 7.89744 16 7.49556 16 7C16 6.50444 15.5977 6.10256 15.1011 6.10256ZM4.23443 1.25641C4.23443 0.760846 4.63676 0.358974 5.1333 0.358974H15.1011C15.5977 0.358974 16 0.760846 16 1.25641C16 1.75197 15.5977 2.15385 15.1011 2.15385H5.1333C4.63676 2.15385 4.23443 1.75197 4.23443 1.25641Z" fill="white"/>
</svg>
