<svg xmlns="http://www.w3.org/2000/svg" width="18" height="18" viewBox="0 0 18 18" fill="none"><style>.a{stroke-linejoin:round;stroke-width:1.5;stroke:#CC9629;}</style><path d="M11.1 13.2C10.8 14.1 10 14.8 9 14.8 8 14.8 7.2 14.1 7 13.2H11.1Z" style="fill:#CC9629;stroke-linejoin:round;stroke-width:1.5;stroke:#CC9629"/><path d="M14 3C14.7 3.8 15.1 4.8 15.3 5.9L15.7 8.6 15.8 8.7C16.3 9.2 16.7 9.9 16.9 10.6 17.2 11.9 16.9 13.2 16.1 14.2" class="a"/><path d="M1.9 14.2C1.1 13.2 0.8 11.9 1.1 10.6 1.3 9.9 1.7 9.2 2.2 8.7L2.3 8.6 2.7 5.9C2.9 4.8 3.3 3.8 4 3" class="a"/><path d="M14 10.8L13.6 10.3C13.3 10.1 13.2 9.8 13.2 9.6L12.7 6.3C12.4 4.5 10.8 3.1 9 3.1 7.2 3.1 5.6 4.5 5.3 6.3L4.8 9.6C4.8 9.8 4.7 10.1 4.4 10.3L4 10.8C3.8 11 3.7 11.2 3.6 11.4 3.4 12.3 4.1 13.2 5 13.2H13C13.9 13.2 14.6 12.3 14.4 11.4 14.3 11.2 14.2 11 14 10.8Z" class="a"/></svg>
