<svg xmlns="http://www.w3.org/2000/svg" width="18" height="18" viewBox="0 0 18 18" fill="none"><style>.a{fill:#006AFF;}.b{stroke-linejoin:round;stroke-width:1.5;stroke:#006AFF;}</style><path d="M4 5C5.1 5 6 4.1 6 3 6 1.9 5.1 1 4 1 2.9 1 2 1.9 2 3 2 4.1 2.9 5 4 5Z" class="a"/><path d="M14.7 11C15.8 11 16.7 10.1 16.7 9 16.7 7.9 15.8 7 14.7 7 13.6 7 12.7 7.9 12.7 9 12.7 10.1 13.6 11 14.7 11Z" class="a"/><path d="M9.3 17C10.4 17 11.3 16.1 11.3 15 11.3 13.9 10.4 13 9.3 13 8.2 13 7.3 13.9 7.3 15 7.3 16.1 8.2 17 9.3 17Z" class="a"/><path d="M4 7V16.3" class="b"/><path d="M9.3 1.7V16.3" class="b"/><path d="M14.7 1.7V9" class="b"/><path d="M14.7 13V16.3" class="b"/></svg>
