<svg xmlns="http://www.w3.org/2000/svg" width="18" height="18" viewBox="0 0 18 18" fill="none"><style>.a{fill:#526679;stroke-linejoin:round;stroke-width:1.5;stroke:#526679;}.b{stroke-linejoin:round;stroke-width:1.5;stroke:#526679;}</style><path d="M7 5.6C6 7.1 5.3 8.5 4.9 9.4 2.8 7.8 1 7.2 1 7.2 1 7.2 3.6 4.6 7 5.6Z" class="a"/><path d="M10.8 17C10.8 17 10.2 15.2 8.6 13.1 9.5 12.7 10.9 12 12.4 11 13.4 14.4 10.8 17 10.8 17Z" class="a"/><path d="M9.8 8.2L4.9 13.1" class="b"/><path d="M12.7 6.7C13.5 6.7 14.1 6 14.1 5.3 14.1 4.5 13.5 3.9 12.7 3.9 12 3.9 11.3 4.5 11.3 5.3 11.3 6 12 6.7 12.7 6.7Z" class="b"/><path d="M1 17C1 17 2.1 10.2 4.9 11.1L5.9 12.1 6.9 13.1C7.8 15.9 1 17 1 17Z" class="b"/><path d="M9.3 2.8C12.2-0.1 16.6 1.4 16.6 1.4 16.6 1.4 18.1 5.8 15.2 8.7 11.7 12.1 7.4 13.6 7.4 13.6L5.9 12.1 4.4 10.6C4.4 10.6 5.2 8.3 7 5.6" class="b"/></svg>
