<svg width="100%" height="100%" viewBox="0 0 18 18" fill="none" xmlns="http://www.w3.org/2000/svg">
<path d="M8.5 1C9.32843 1 10 1.67157 10 2.5C10 3.32843 9.32843 4 8.5 4C7.67157 4 7 3.32843 7 2.5C7 1.67157 7.67157 1 8.5 1Z" fill="#006AFF"/>
<path d="M8.5 7C9.32843 7 10 7.67157 10 8.5C10 9.32843 9.32843 10 8.5 10C7.67157 10 7 9.32843 7 8.5C7 7.67157 7.67157 7 8.5 7Z" fill="#006AFF"/>
<path d="M8.5 13C9.32843 13 10 13.6716 10 14.5C10 15.3284 9.32843 16 8.5 16C7.67157 16 7 15.3284 7 14.5C7 13.6716 7.67157 13 8.5 13Z" fill="#006AFF"/>
</svg>
