<svg xmlns="http://www.w3.org/2000/svg" width="18" height="18" viewBox="0 0 18 18" fill="none"><style>.a{fill:#526679;stroke-linejoin:round;stroke-width:1.5;stroke:#526679;}.b{stroke-linejoin:round;stroke-width:1.5;stroke:#526679;}</style><path d="M11.2 11.9C10.6 11.9 10.1 11.9 9.7 11.8V11.5C10.2 11.8 10.7 11.9 11.2 11.9Z" class="a"/><path d="M5.4 15.5V14.8C5.4 14.4 5.6 13.9 5.9 13.7 7.5 12.5 9.3 11.9 11.2 11.9 13.1 11.9 14.9 12.5 16.4 13.7 16.8 13.9 17 14.4 17 14.8V15.5C17 16.3 16.3 17 15.5 17H6.8C6 17 5.4 16.3 5.4 15.5Z" class="b"/><path d="M6.8 8.3C4.9 8.3 3.1 8.9 1.6 10 1.2 10.3 1 10.7 1 11.2V11.9C1 12.7 1.7 13.4 2.5 13.4H6.4" class="b"/><path d="M8.3 9V7.5C8.3 7.5 8.3 9 6.8 9.7 6.8 9.7 7.5 11.9 11.2 11.9 9.6 11.9 8.3 10.6 8.3 9Z" class="a"/><path d="M12.6 7.5C13.2 7.5 13.6 7.4 14.1 7.2 13.9 5.7 12.7 4.6 11.2 4.6 10.7 4.6 10.2 4.8 9.8 5 9.9 6.4 11.2 7.5 12.6 7.5Z" class="a"/><path d="M14.1 7.5V9C14.1 9.8 13.8 10.5 13.2 11.1 12.7 11.6 12 11.9 11.2 11.9 14.8 11.9 15.5 9.7 15.5 9.7 14.1 9 14.1 7.5 14.1 7.5Z" class="a"/><path d="M14.1 7.5V9C14.1 9.8 13.8 10.5 13.2 11.1 12.7 11.6 12 11.9 11.2 11.9 9.6 11.9 8.3 10.6 8.3 9V7.5C8.3 6.5 8.9 5.5 9.8 5 9.9 6.4 11.2 7.5 12.6 7.5 13.2 7.5 13.6 7.4 14.1 7.2 14.1 7.3 14.1 7.4 14.1 7.5Z" class="b"/><path d="M8.2 7.9V7.9" class="b"/><path d="M8.2 7.9V7.9C7.8 8.1 7.3 8.3 6.8 8.3 5.2 8.3 3.9 7 3.9 5.4V3.9C3.9 2.3 5.2 1 6.8 1 8.4 1 9.7 2.3 9.7 3.9V5" class="b"/></svg>
