<svg xmlns="http://www.w3.org/2000/svg" width="18" height="18" viewBox="0 0 18 18" fill="none"><style>.a{stroke-linejoin:round;stroke-width:1.5;stroke:#526679;}</style><path d="M17 9C17 10.4 16.7 11.7 16 12.8 15.9 13 15.8 13.3 15.6 13.5 14.2 15.6 11.9 16.9 9.2 17 9.1 17 9.1 17 9 17 8.9 17 8.9 17 8.8 17 6.1 16.9 3.8 15.6 2.4 13.5 2.2 13.3 2.1 13 2 12.8 1.3 11.7 1 10.4 1 9 1 7.4 1.5 5.9 2.3 4.7 2.5 4.3 2.8 4 3.1 3.6V3.6C4.5 2.1 6.5 1.1 8.8 1 8.9 1 8.9 1 9 1 9.1 1 9.1 1 9.2 1 11.5 1.1 13.5 2.1 14.9 3.6V3.6C15.2 4 15.5 4.3 15.7 4.7 16.5 5.9 17 7.4 17 9Z" class="a"/><path d="M9 17C10.6 17 11.9 13.4 11.9 9 11.9 4.6 10.6 1 9 1 7.4 1 6.1 4.6 6.1 9 6.1 13.4 7.4 17 9 17Z" class="a"/><path d="M1.6 6.1H6.3 11.7 16.4" class="a"/><path d="M1.5 11.9H6.3 11.7 16.5" class="a"/></svg>
