<svg xmlns="http://www.w3.org/2000/svg" width="20" height="14" viewBox="0 0 20 14" fill="none"><path d="M18.1 0H1.9C0.8 0 0 0.8 0 1.9V12.1C0 13.2 0.8 14 1.9 14H18.1C19.2 14 20 13.2 20 12.1V1.9C20 0.8 19.2 0 18.1 0Z" fill="#353A48"/><path d="M10.1 10C9.4 10.6 8.5 10.9 7.6 10.9 5.4 10.9 3.7 9.2 3.7 7.1 3.7 4.9 5.4 3.2 7.6 3.2 8.5 3.2 9.4 3.6 10.1 4.1 10.8 3.6 11.7 3.2 12.6 3.2 14.8 3.2 16.5 4.9 16.5 7.1 16.5 9.2 14.8 10.9 12.6 10.9 11.7 10.9 10.8 10.6 10.1 10Z" fill="#FF5E00"/><path d="M10.1 10C9.4 10.6 8.5 10.9 7.6 10.9 5.4 10.9 3.7 9.2 3.7 7.1 3.7 4.9 5.4 3.2 7.6 3.2 8.5 3.2 9.4 3.6 10.1 4.1 9.3 4.8 8.7 5.9 8.7 7.1 8.7 8.2 9.3 9.3 10.1 10Z" fill="#ED0006"/><path d="M10.1 4.1C10.8 3.6 11.7 3.2 12.6 3.2 14.8 3.2 16.5 4.9 16.5 7.1 16.5 9.2 14.8 10.9 12.6 10.9 11.7 10.9 10.8 10.6 10.1 10 10.9 9.3 11.5 8.2 11.5 7.1 11.5 5.9 10.9 4.8 10.1 4.1Z" fill="#F9A000"/></svg>
