<svg width="17" height="14" viewBox="0 0 17 14" fill="none" xmlns="http://www.w3.org/2000/svg">
<path fill-rule="evenodd" clip-rule="evenodd" d="M16.1 8.92606C16.1 9.31264 15.7865 9.62606 15.4 9.62606H12.1114C11.8142 9.62606 11.5493 9.45999 11.4509 9.17946L10.9263 7.70509L9.2174 13.4986C9.12937 13.797 8.85567 14 8.5461 14C8.5391 14 8.53228 13.9986 8.5251 13.9983C8.2073 13.9888 7.9357 13.7636 7.86395 13.4537L5.60366 3.67608L4.23516 9.11839C4.15694 9.42971 3.87711 9.62606 3.55616 9.62606H0.699998C0.313424 9.62606 0 9.31264 0 8.92606C0 8.53949 0.313424 8.22607 0.699998 8.22607H3.01017L4.95249 0.50824C5.03124 0.194466 5.31841 -0.00328371 5.63796 4.1285e-05C5.96136 0.00319128 6.24048 0.226666 6.31346 0.541665L8.62782 10.5464L10.1974 5.22255C10.2831 4.931 10.5474 4.72293 10.851 4.71523C11.1529 4.70648 11.4287 4.88568 11.5291 5.1725L12.6077 8.22607H15.4C15.7865 8.22607 16.1 8.53949 16.1 8.92606Z" fill="white"/>
</svg>
