<svg xmlns="http://www.w3.org/2000/svg" width="20" height="15" viewBox="0 0 20 15" fill="none"><path d="M18.1 0.9H1.9C0.8 0.9 0 1.8 0 2.8V13.1C0 14.1 0.8 14.9 1.9 14.9H18.1C19.2 14.9 20 14.1 20 13.1V2.8C20 1.8 19.2 0.9 18.1 0.9Z" fill="#2183CB"/><path d="M10.7 12H9.3C7.1 12 5.3 10.2 5.3 8 5.2 5.8 6.9 3.9 9.1 3.8H10.7C13 3.8 14.9 5.7 14.9 7.9V8C14.8 10.2 13 12 10.7 12ZM9.4 4.6C7.5 4.6 6 6.1 6 7.9 6 9.8 7.5 11.3 9.4 11.3 11.2 11.3 12.8 9.8 12.8 7.9 12.8 6.1 11.2 4.6 9.4 4.6ZM9.9 10.2V5.7C11.2 6 11.9 7.3 11.6 8.5 11.4 9.3 10.8 10 9.9 10.2ZM8.8 10.2C7.6 9.9 6.8 8.6 7.2 7.4 7.4 6.5 8 5.9 8.8 5.7V10.2Z" fill="white"/></svg>