<svg width="14" height="14" viewBox="0 0 14 14" fill="none" xmlns="http://www.w3.org/2000/svg">
<path d="M7 13.0005C10.3137 13.0005 13 10.3142 13 7.00049C13 3.68678 10.3137 1.00049 7 1.00049C3.68629 1.00049 1 3.68678 1 7.00049C1 10.3142 3.68629 13.0005 7 13.0005Z" stroke="#526679" stroke-width="1.5" stroke-miterlimit="10" stroke-linecap="round" stroke-linejoin="round"/>
<path d="M7.00018 8.63692C6.70018 8.63692 6.45472 8.39146 6.45472 8.09146C6.45472 6.97874 7.06564 6.56964 7.51837 6.2751C7.90018 6.01874 8.09109 5.89328 8.09109 5.36419C8.08563 5.11328 7.99836 4.27328 7.00018 4.27328C5.96381 4.27328 5.90927 5.18419 5.90927 5.36419C5.90927 5.66419 5.66381 5.90965 5.36381 5.90965C5.06381 5.90965 4.81836 5.66419 4.81836 5.36419C4.81836 4.48601 5.402 3.18237 7.00018 3.18237C8.59836 3.18237 9.182 4.48601 9.182 5.36419C9.182 6.47692 8.57108 6.88601 8.11835 7.18056C7.73653 7.43692 7.54563 7.56237 7.54563 8.09146C7.54563 8.39146 7.30018 8.63692 7.00018 8.63692Z" fill="#526679"/>
<path d="M6.99982 10.8187C7.45169 10.8187 7.818 10.4524 7.818 10.0006C7.818 9.54869 7.45169 9.18237 6.99982 9.18237C6.54795 9.18237 6.18164 9.54869 6.18164 10.0006C6.18164 10.4524 6.54795 10.8187 6.99982 10.8187Z" fill="#526679"/>
</svg>
