<svg width="18" height="18" viewBox="0 0 18 18" fill="none" xmlns="http://www.w3.org/2000/svg">
<path d="M13.1818 7.54547H4.45455C3.65455 7.54547 3 8.20002 3 9.00002V14.0909C3 15.6982 4.30182 17 5.90909 17H11.7273C13.3345 17 14.6364 15.6982 14.6364 14.0909V9.00002C14.6364 8.20002 13.9818 7.54547 13.1818 7.54547Z" stroke="#526679" stroke-width="1.5" stroke-miterlimit="10" stroke-linecap="round" stroke-linejoin="round"/>
<path d="M8.81819 1C6.81091 1 5.18182 2.62909 5.18182 4.63636V7.54545H12.4546V4.63636C12.4546 2.62909 10.8255 1 8.81819 1Z" stroke="#526679" stroke-width="1.5" stroke-miterlimit="10" stroke-linecap="round" stroke-linejoin="round"/>
<path d="M10.2727 11.1818C10.2727 10.3818 9.61818 9.72729 8.81818 9.72729C8.01818 9.72729 7.36363 10.3818 7.36363 11.1818C7.36363 11.72 7.65454 12.1855 8.0909 12.4328V14.0909C8.0909 14.4909 8.41818 14.8182 8.81818 14.8182C9.21818 14.8182 9.54545 14.4909 9.54545 14.0909V12.4328C9.98181 12.1855 10.2727 11.72 10.2727 11.1818Z" fill="#526679"/>
</svg>
