<svg width="100%" height="100%" viewBox="0 0 18 18" fill="none" xmlns="http://www.w3.org/2000/svg">
<path d="M17 4.63631C17 3.83631 16.3455 3.18176 15.5455 3.18176H2.45455C1.65455 3.18176 1 3.83631 1 4.63631V15.5454C1 16.3454 1.65455 16.9999 2.45455 16.9999H15.5455C16.3455 16.9999 17 16.3454 17 15.5454V8.99994" stroke="#526679" stroke-width="1.5" stroke-miterlimit="10" stroke-linecap="round" stroke-linejoin="round"/>
<path d="M1 4.63631C1 3.83631 1.65455 3.18176 2.45455 3.18176H15.5455C16.3455 3.18176 17 3.83631 17 4.63631V5.36358H1V4.63631Z" fill="#526679" stroke="#526679" stroke-width="1.5" stroke-miterlimit="10" stroke-linecap="round" stroke-linejoin="round"/>
<path d="M3.90909 3.18182V1" stroke="#526679" stroke-width="1.5" stroke-miterlimit="10" stroke-linecap="round" stroke-linejoin="round"/>
<path d="M14.0909 3.18182V1" stroke="#526679" stroke-width="1.5" stroke-miterlimit="10" stroke-linecap="round" stroke-linejoin="round"/>
<path d="M6.09091 8.27271L9 11.1818L6.09091 14.0909" stroke="#526679" stroke-width="1.5" stroke-miterlimit="10" stroke-linecap="round" stroke-linejoin="round"/>
<path d="M11.9091 8.27271L8.99997 11.1818L11.9091 14.0909" stroke="#526679" stroke-width="1.5" stroke-miterlimit="10" stroke-linecap="round" stroke-linejoin="round"/>
</svg>
