<svg width="40" height="40" viewBox="0 0 40 40" fill="none" xmlns="http://www.w3.org/2000/svg">
<circle cx="20" cy="20" r="19.5" stroke="#D5DDE9"/>
<path d="M24.1818 18.5454H15.4545C14.6545 18.5454 14 19.2 14 20V25.0909C14 26.6981 15.3018 28 16.9091 28H22.7273C24.3345 28 25.6364 26.6981 25.6364 25.0909V20C25.6364 19.2 24.9818 18.5454 24.1818 18.5454Z" stroke="#526679" stroke-width="1.5" stroke-miterlimit="10" stroke-linecap="round" stroke-linejoin="round"/>
<path d="M19.818 12C17.8107 12 16.1816 13.6291 16.1816 15.6364V18.5455H23.4544V15.6364C23.4544 13.6291 21.8253 12 19.818 12Z" stroke="#526679" stroke-width="1.5" stroke-miterlimit="10" stroke-linecap="round" stroke-linejoin="round"/>
<path d="M21.2724 22.1818C21.2724 21.3818 20.6178 20.7273 19.8178 20.7273C19.0178 20.7273 18.3633 21.3818 18.3633 22.1818C18.3633 22.72 18.6542 23.1855 19.0906 23.4328V25.0909C19.0906 25.4909 19.4178 25.8182 19.8178 25.8182C20.2178 25.8182 20.5451 25.4909 20.5451 25.0909V23.4328C20.9815 23.1855 21.2724 22.72 21.2724 22.1818Z" fill="#526679"/>
</svg>
