<svg xmlns="http://www.w3.org/2000/svg" width="20" height="16" viewBox="0 0 20 16" fill="none"><style>.a{fill:white;}</style><g clip-path="url(#clip0)"><path d="M18.1 0.9H1.9C0.8 0.9 0 1.8 0 2.8V13.3C0 14.4 0.8 15.2 1.9 15.2H18.1C19.2 15.2 20 14.4 20 13.3V2.8C20 1.8 19.2 0.9 18.1 0.9Z" fill="#224DBA"/><path d="M6.8 10.5H5.6L4.8 7C4.7 6.9 4.6 6.7 4.5 6.7 4.2 6.5 3.8 6.4 3.4 6.3V6.2H5.3C5.6 6.2 5.8 6.4 5.8 6.6L6.3 9.1 7.4 6.2H8.6L6.8 10.5ZM9.2 10.5H8.1L9 6.2H10.1L9.2 10.5ZM11.6 7.4C11.6 7.1 11.8 7 12 7 12.4 7 12.8 7 13.1 7.2L13.3 6.3C13 6.1 12.6 6.1 12.3 6.1 11.2 6.1 10.4 6.7 10.4 7.5 10.4 8.1 11 8.4 11.4 8.6 11.8 8.8 12 9 11.9 9.2 11.9 9.5 11.6 9.6 11.3 9.6 10.9 9.6 10.5 9.5 10.1 9.3L9.9 10.3C10.3 10.4 10.8 10.5 11.1 10.5 12.3 10.5 13.1 9.9 13.1 9 13.1 7.9 11.6 7.8 11.6 7.4ZM17 10.5L16.1 6.2H15.1C15 6.2 14.8 6.3 14.7 6.5L13.1 10.5H14.2L14.4 9.8H15.8L16 10.5H17ZM15.3 7.3L15.6 8.9H14.7L15.3 7.3Z" class="a"/></g><defs><clipPath><rect width="20" height="14.3" class="a"/></clipPath></defs></svg>
