<svg width="100%" height="100%" viewBox="0 0 18 18" fill="none" xmlns="http://www.w3.org/2000/svg">
<g clip-path="url(#clip0)">
<path d="M3.72726 1.00049V3.86594C3.72726 4.80412 4.17817 5.68412 4.94908 6.22958L8.81817 9.00049L12.6873 6.23685C13.4582 5.6914 13.9091 4.80412 13.9091 3.86594V1.00049H3.72726Z" stroke="#526679" stroke-width="1.5" stroke-miterlimit="10" stroke-linecap="round" stroke-linejoin="round"/>
<path d="M12.8691 6.09143C12.8109 6.14234 12.7527 6.19325 12.6873 6.23689L8.81818 9.00052L4.94909 6.23689C4.88364 6.19325 4.82545 6.14234 4.76727 6.09143H12.8691Z" fill="black" stroke="#526679" stroke-width="1.5" stroke-miterlimit="10" stroke-linecap="round" stroke-linejoin="round"/>
<path d="M13.9091 17.0005V14.135C13.9091 13.1969 13.4582 12.3169 12.6873 11.7714L8.81817 9.00049L4.94908 11.7641C4.17817 12.3096 3.72726 13.1969 3.72726 14.135V17.0005H13.9091Z" stroke="#526679" stroke-width="1.5" stroke-miterlimit="10" stroke-linecap="round" stroke-linejoin="round"/>
<path d="M3 1.00049H14.6364" stroke="#526679" stroke-width="1.5" stroke-miterlimit="10" stroke-linecap="round" stroke-linejoin="round"/>
<path d="M3 17.0005H14.6364" stroke="#526679" stroke-width="1.5" stroke-miterlimit="10" stroke-linecap="round" stroke-linejoin="round"/>
<path d="M8.81817 9.00049V13.3641L3.72726 17.0005H13.9091L8.81817 13.3641V9.00049Z" fill="#526679" stroke="#526679" stroke-width="1.5" stroke-miterlimit="10" stroke-linecap="round" stroke-linejoin="round"/>
<path d="M12.8691 6.09143C12.8109 6.14234 12.7527 6.19325 12.6873 6.23689L8.81818 9.00052L4.94909 6.23689C4.88364 6.19325 4.82545 6.14234 4.76727 6.09143H12.8691Z" fill="#526679" stroke="#526679" stroke-width="1.5" stroke-miterlimit="10" stroke-linecap="round" stroke-linejoin="round"/>
</g>
<defs>
<clipPath id="clip0">
<rect width="18" height="18" fill="white" transform="translate(0 0.000488281)"/>
</clipPath>
</defs>
</svg>
