<svg xmlns="http://www.w3.org/2000/svg" width="18" height="18" viewBox="0 0 18 18" fill="none"><style>.a{fill:#526679;}</style><path d="M1 15.4C1 16 1.5 16.5 2.2 16.5H15.8C16.5 16.5 17 16 17 15.4 17 15.2 16.9 15 16.9 14.8L10.1 2.6C9.9 2.2 9.5 2 9 2H8.9C8.5 2 8.1 2.2 7.9 2.6L1.1 14.8C1.1 15 1 15.2 1 15.4Z" style="stroke-linejoin:round;stroke-width:1.5;stroke:#526679"/><path d="M9 13.6C9.4 13.6 9.7 13.3 9.7 12.9 9.7 12.5 9.4 12.2 9 12.2 8.6 12.2 8.3 12.5 8.3 12.9 8.3 13.3 8.6 13.6 9 13.6Z" class="a"/><path d="M9 6.4C8.6 6.4 8.3 6.7 8.3 7.1V10.7C8.3 11.1 8.6 11.5 9 11.5 9.4 11.5 9.7 11.1 9.7 10.7V7.1C9.7 6.7 9.4 6.4 9 6.4Z" class="a"/></svg>
