<svg xmlns="http://www.w3.org/2000/svg" width="24" height="18" viewBox="0 0 24 18" fill="none"><path d="M21.7 0H2.3C1 0 0 1.1 0 2.4V15.6C0 16.9 1 18 2.3 18H21.7C23 18 24 16.9 24 15.6V2.4C24 1.1 23 0 21.7 0Z" fill="#353A48"/><path d="M12.1 12.9C11.3 13.6 10.3 14.1 9.1 14.1 6.5 14.1 4.4 11.8 4.4 9.1 4.4 6.3 6.5 4.1 9.1 4.1 10.3 4.1 11.3 4.6 12.1 5.3 12.9 4.6 14 4.1 15.2 4.1 17.7 4.1 19.8 6.3 19.8 9.1 19.8 11.8 17.7 14.1 15.2 14.1 14 14.1 12.9 13.6 12.1 12.9Z" fill="#FF5E00"/><path d="M12.1 12.9C11.3 13.6 10.3 14.1 9.1 14.1 6.5 14.1 4.4 11.8 4.4 9.1 4.4 6.3 6.5 4.1 9.1 4.1 10.3 4.1 11.3 4.6 12.1 5.3 11.1 6.2 10.5 7.6 10.5 9.1 10.5 10.6 11.1 12 12.1 12.9Z" fill="#ED0006"/><path d="M12.1 5.3C12.9 4.6 14 4.1 15.2 4.1 17.7 4.1 19.8 6.3 19.8 9.1 19.8 11.8 17.7 14.1 15.2 14.1 14 14.1 12.9 13.6 12.1 12.9 13.1 12 13.8 10.6 13.8 9.1 13.8 7.6 13.1 6.2 12.1 5.3Z" fill="#F9A000"/></svg>
