<svg xmlns="http://www.w3.org/2000/svg" width="100" height="100" viewBox="0 0 32 32" fill="none"><style>.a{stroke-linejoin:round;stroke-width:1.5;stroke:#53BC6A;}</style><path d="M24 31C27.9 31 31 27.9 31 24 31 20.1 27.9 17 24 17 20.1 17 17 20.1 17 24 17 27.9 20.1 31 24 31Z" class="a"/><path d="M21 24L23 26 27 22" class="a"/><path d="M12 23H7C5.9 23 5 22.1 5 21V7C5 5.9 5.9 5 7 5H25C26.1 5 27 5.9 27 7V17.7" class="a"/><path d="M1 19V3C1 1.9 1.9 1 3 1H23" class="a"/><path d="M27 10H5V12H27V10Z" style="fill:#53BC6A;stroke-linejoin:round;stroke-width:1.5;stroke:#53BC6A"/><path d="M9 19H14" class="a"/></svg>
