<svg xmlns="http://www.w3.org/2000/svg" width="20" height="15" viewBox="0 0 20 15" fill="none"><style>.a{fill:white;}</style><g clip-path="url(#clip0)"><path d="M18.1 0H1.9C0.8 0 0 0.8 0 1.9V12.4C0 13.4 0.8 14.3 1.9 14.3H18.1C19.2 14.3 20 13.4 20 12.4V1.9C20 0.8 19.2 0 18.1 0Z" fill="#224DBA"/><path d="M6.8 9.5H5.6L4.8 6.1C4.7 5.9 4.6 5.8 4.5 5.7 4.2 5.6 3.8 5.4 3.4 5.4V5.2H5.3C5.6 5.2 5.8 5.4 5.8 5.7L6.3 8.1 7.4 5.2H8.6L6.8 9.5ZM9.2 9.5H8.1L9 5.2H10.1L9.2 9.5ZM11.6 6.4C11.6 6.2 11.8 6.1 12 6.1 12.4 6 12.8 6.1 13.1 6.3L13.3 5.3C13 5.2 12.6 5.1 12.3 5.1 11.2 5.1 10.4 5.7 10.4 6.6 10.4 7.2 11 7.5 11.4 7.7 11.8 7.9 12 8 11.9 8.2 11.9 8.5 11.6 8.7 11.3 8.7 10.9 8.7 10.5 8.6 10.1 8.4L9.9 9.3C10.3 9.5 10.8 9.6 11.1 9.6 12.3 9.6 13.1 9 13.1 8.1 13.1 7 11.6 6.9 11.6 6.4ZM17 9.5L16.1 5.2H15.1C15 5.2 14.8 5.4 14.7 5.6L13.1 9.5H14.2L14.4 8.9H15.8L16 9.5H17ZM15.3 6.4L15.6 8H14.7L15.3 6.4Z" class="a"/></g><defs><clipPath><rect width="20" height="14.3" class="a"/></clipPath></defs></svg>
