<svg xmlns="http://www.w3.org/2000/svg" width="18" height="18" viewBox="0 0 18 18" fill="none"><style>.a{fill:#006AFF;}</style><path d="M9 17C13.4 17 17 13.4 17 9 17 4.6 13.4 1 9 1 4.6 1 1 4.6 1 9 1 13.4 4.6 17 9 17Z" style="stroke-linejoin:round;stroke-width:1.5;stroke:#006AFF"/><path d="M9 11.2C8.6 11.2 8.3 10.9 8.3 10.5 8.3 9 9.1 8.4 9.7 8 10.2 7.7 10.5 7.5 10.5 6.8 10.4 6.5 10.3 5.4 9 5.4 7.6 5.4 7.5 6.6 7.5 6.8 7.5 7.2 7.2 7.5 6.8 7.5 6.4 7.5 6.1 7.2 6.1 6.8 6.1 5.6 6.9 3.9 9 3.9 11.1 3.9 11.9 5.6 11.9 6.8 11.9 8.3 11.1 8.8 10.5 9.2 10 9.6 9.7 9.7 9.7 10.5 9.7 10.9 9.4 11.2 9 11.2Z" class="a"/><path d="M9 14.1C9.6 14.1 10.1 13.6 10.1 13 10.1 12.4 9.6 11.9 9 11.9 8.4 11.9 7.9 12.4 7.9 13 7.9 13.6 8.4 14.1 9 14.1Z" class="a"/></svg>
