<svg width="100%" height="100%" viewBox="0 0 18 18" fill="none" xmlns="http://www.w3.org/2000/svg">
<path d="M15.5455 7.54547H6.81818C6.01818 7.54547 5.36363 8.20002 5.36363 9.00002V14.0909C5.36363 15.6982 6.66545 17 8.27272 17H14.0909C15.6982 17 17 15.6982 17 14.0909V9.00002C17 8.20002 16.3455 7.54547 15.5455 7.54547Z" stroke="#526679" stroke-width="1.5" stroke-miterlimit="10" stroke-linecap="round" stroke-linejoin="round"/>
<path d="M1 6.09091V4.27273C1 2.46182 2.46182 1 4.27273 1C6.08364 1 7.54545 2.46182 7.54545 4.27273V7.54545" stroke="#526679" stroke-width="1.5" stroke-miterlimit="10" stroke-linecap="round" stroke-linejoin="round"/>
<path d="M12.6364 11.1818C12.6364 10.3818 11.9818 9.72729 11.1818 9.72729C10.3818 9.72729 9.72728 10.3818 9.72728 11.1818C9.72728 11.72 10.0182 12.1855 10.4546 12.4328V14.0909C10.4546 14.4909 10.7818 14.8182 11.1818 14.8182C11.5818 14.8182 11.9091 14.4909 11.9091 14.0909V12.4328C12.3455 12.1855 12.6364 11.72 12.6364 11.1818Z" fill="#526679"/>
</svg>
