<svg xmlns="http://www.w3.org/2000/svg" width="18" height="18" viewBox="0 0 18 18" fill="none"><style>.a{fill:#526679;stroke-linejoin:round;stroke-width:1.5;stroke:#526679;}.b{stroke-linejoin:round;stroke-width:1.5;stroke:#526679;}</style><path d="M6.1 17C6.7 17 7.2 16.5 7.2 15.9 7.2 15.3 6.7 14.8 6.1 14.8 5.5 14.8 5 15.3 5 15.9 5 16.5 5.5 17 6.1 17Z" class="a"/><path d="M13 17C13.6 17 14.1 16.5 14.1 15.9 14.1 15.3 13.6 14.8 13 14.8 12.4 14.8 11.9 15.3 11.9 15.9 11.9 16.5 12.4 17 13 17Z" class="a"/><path d="M1 1H2C2.7 1 3.3 1.5 3.4 2.2L3.6 3.2 5.2 12.2" class="b"/><path d="M15.5 14.8H4.4C3.7 14.8 3.2 14.3 3.2 13.6 3.2 13 3.6 12.5 4.1 12.4L5.2 12.2 15.8 10C16.5 9.8 17 9.2 17 8.5V4.6C17 3.8 16.3 3.2 15.5 3.2H3.6" class="b"/><path d="M12.8 10.4L12.6 3.2" class="b"/><path d="M8.9 11.4L7.8 3.2" class="b"/></svg>
