<svg xmlns="http://www.w3.org/2000/svg" width="32" height="32" viewBox="0 0 32 32" fill="none"><style>.a{stroke-linejoin:round;stroke-width:1.5;stroke:#E02E2E;}</style><path d="M21 24H27" class="a"/><path d="M24 31C27.9 31 31 27.9 31 24 31 20.1 27.9 17 24 17 20.1 17 17 20.1 17 24 17 27.9 20.1 31 24 31Z" class="a"/><path d="M13.4 1C10 1 7.2 3.8 7.2 7.2V10.1C7.2 13.5 10 16.3 13.4 16.3 16.8 16.3 19.6 13.5 19.6 10.1V7.2C19.6 3.8 16.8 1 13.4 1Z" class="a"/><path d="M18.1 20.3C17.4 21.4 17 22.6 17 24 17 25.1 17.2 26.1 17.7 27H4.1C2.4 27 1 25.6 1 23.9V22.4C1 21.5 1.5 20.5 2.2 20 3.3 19.2 4.4 18.6 5.5 18" class="a"/></svg>
