<svg xmlns="http://www.w3.org/2000/svg" width="24" height="18" viewBox="0 0 24 18" fill="none"><path d="M21.7 0H2.3C1 0 0 1.1 0 2.4V15.6C0 16.9 1 18 2.3 18H21.7C23 18 24 16.9 24 15.6V2.4C24 1.1 23 0 21.7 0Z" fill="#2183CB"/><path d="M12.9 14.2H11.1C8.5 14.2 6.3 11.9 6.3 9 6.2 6.2 8.3 3.9 10.9 3.8H12.9C15.6 3.7 17.8 6.1 17.9 9V9C17.8 11.9 15.6 14.2 12.9 14.2ZM11.2 4.7C9 4.7 7.2 6.6 7.2 9 7.2 11.4 9 13.3 11.2 13.3 13.5 13.3 15.3 11.4 15.3 9 15.3 6.6 13.5 4.7 11.2 4.7ZM11.9 11.9V6.1C13.4 6.5 14.3 8.1 13.9 9.7 13.7 10.8 12.9 11.6 11.9 11.9ZM10.6 11.9C9.1 11.5 8.2 9.9 8.6 8.3 8.8 7.2 9.6 6.4 10.6 6.1V11.9Z" fill="white"/></svg>
