<svg xmlns="http://www.w3.org/2000/svg" width="32" height="32" viewBox="0 0 32 32" fill="none"><style>.a{stroke-linejoin:round;stroke-width:1.5;stroke:#006AFF;}</style><path d="M10 23C10.8 23 11.5 22.3 11.5 21.5 11.5 20.7 10.8 20 10 20 9.2 20 8.5 20.7 8.5 21.5 8.5 22.3 9.2 23 10 23Z" style="fill:#006AFF;stroke-linejoin:round;stroke-width:1.5;stroke:#006AFF"/><path d="M1 1H2.3C3.3 1 4.1 1.7 4.3 2.6L4.5 4 6.7 16.4" class="a"/><path d="M4.5 4H10.4 16.2 21.8 25C26.1 4 27 4.9 27 6V8.2 11.3C27 12.3 26.3 13.1 25.3 13.3L21.2 14 16.9 14.7 11.8 15.6 6.7 16.4 5.3 16.7C4.6 16.9 4 17.6 4 18.3 4 19.3 4.7 20 5.7 20H10 18.3" class="a"/><path d="M21.2 14L21.5 8.7 21.8 4" class="a"/><path d="M16.9 14.7L16.5 9.2 16.2 4" class="a"/><path d="M11.8 15.6L11.1 9.7 10.4 4" class="a"/><path d="M24 31C27.9 31 31 27.9 31 24 31 20.1 27.9 17 24 17 20.1 17 17 20.1 17 24 17 27.9 20.1 31 24 31Z" class="a"/><path d="M24 20V24L26 26" class="a"/></svg>
