<svg width="24" height="24" viewBox="0 0 24 24" fill="none" xmlns="http://www.w3.org/2000/svg">
<path d="M22.3907 21.1495H1.51447C0.704988 21.1495 0.0233154 20.4892 0.0233154 19.6584V4.57636C0.0233154 3.76688 0.683686 3.08521 1.51447 3.08521H22.3907C23.2002 3.08521 23.8819 3.74558 23.8819 4.57636V19.6584C23.8819 20.4892 23.2215 21.1495 22.3907 21.1495Z" fill="#E3E3E3"/>
<path opacity="0.1" d="M3.00569 21.1496L11.9313 13.9707L11.9952 13.5873L2.79266 6.96228L2.77136 20.8301L3.00569 21.1496Z" fill="#231F20"/>
<path d="M1.51447 21.1496C0.683686 21.1496 0.0233154 20.4892 0.0233154 19.6584V4.5551C0.0233154 3.72431 0.683686 3.5752 1.51447 3.5752C2.34526 3.5752 3.00563 3.74561 3.00563 4.5551V21.1496H1.51447Z" fill="#D54B3D"/>
<path d="M1.51447 3.78822C2.57959 3.78822 2.79261 4.10775 2.79261 4.5551V20.9365H1.51447C0.8115 20.9365 0.236338 20.3614 0.236338 19.6584V4.5551C0.236338 4.08645 0.449361 3.78822 1.51447 3.78822ZM1.51447 3.5752C0.683686 3.5752 0.0233154 3.74561 0.0233154 4.5551V19.6584C0.0233154 20.4892 0.683686 21.1496 1.51447 21.1496H3.00563V4.5551C3.00563 3.72431 2.34526 3.5752 1.51447 3.5752Z" fill="#D72B27"/>
<path d="M22.3907 21.1496H20.8995V4.5125C20.8995 3.68171 21.5599 3.5752 22.3907 3.5752C23.2215 3.5752 23.8819 3.68171 23.8819 4.5125V19.6797C23.8819 20.4892 23.2215 21.1496 22.3907 21.1496Z" fill="#D54B3D"/>
<path d="M22.3907 3.78822C23.3493 3.78822 23.6688 3.97994 23.6688 4.5125V19.6797C23.6688 20.3827 23.0937 20.9578 22.3907 20.9578H21.1126V4.5125C21.1126 3.95864 21.4321 3.78822 22.3907 3.78822ZM22.3907 3.5752C21.5599 3.5752 20.8995 3.68171 20.8995 4.5125V21.1709H22.3907C23.2215 21.1709 23.8819 20.5105 23.8819 19.6797V4.5125C23.8819 3.68171 23.2215 3.5752 22.3907 3.5752Z" fill="#D72B27"/>
<path d="M16.0001 21.1495L0.148193 5.1745L0.981989 5.51366L12.0166 13.4594L23.8819 4.75879V19.6797C23.8819 20.4892 23.2216 21.1495 22.3908 21.1495H16.0001Z" fill="url(#paint0_linear)"/>
<path d="M11.9314 13.9707L0.662472 5.79065C0.00210145 5.3007 -0.189619 4.3634 0.300333 3.70303C0.790285 3.04266 1.74889 2.89354 2.43056 3.38349L11.9527 10.3067L21.5387 3.29828C22.1991 2.80833 23.1364 2.95745 23.6263 3.63912C24.1163 4.29949 23.9671 5.23679 23.2855 5.72674L11.9314 13.9707Z" fill="#D54B3D"/>
<path d="M22.3908 3.21302C22.7955 3.21302 23.1789 3.40474 23.4346 3.74558C23.8393 4.32074 23.7115 5.10893 23.1576 5.53497L11.9314 13.715L0.790266 5.62018C0.215105 5.19413 0.0659888 4.38465 0.470732 3.83079C0.705057 3.51125 1.1098 3.29823 1.53585 3.29823C1.81277 3.29823 2.0897 3.38344 2.30273 3.55386L11.8035 10.4558L11.9314 10.541L12.0592 10.4558L21.6239 3.44735C21.8582 3.29823 22.1138 3.21302 22.3908 3.21302ZM22.3908 3C22.0925 3 21.773 3.08521 21.5174 3.27693L11.9314 10.2854L2.40924 3.36214C2.15361 3.17042 1.83408 3.08521 1.51454 3.08521C1.04589 3.08521 0.577243 3.29823 0.279011 3.70298C-0.189638 4.36335 0.00208201 5.30065 0.662452 5.7906L11.9314 13.992L23.2642 5.72669C23.9245 5.23674 24.0736 4.32074 23.605 3.63907C23.3068 3.21302 22.8594 3 22.3908 3Z" fill="#D72B27"/>
<defs>
<linearGradient id="paint0_linear" x1="0.149117" y1="12.9538" x2="23.8896" y2="12.9538" gradientUnits="userSpaceOnUse">
<stop stop-opacity="0.1"/>
<stop offset="1" stop-opacity="0.2"/>
</linearGradient>
</defs>
</svg>
