<svg xmlns="http://www.w3.org/2000/svg" width="18" height="18" viewBox="0 0 18 18" fill="none"><style>.a{stroke-linejoin:round;stroke-width:1.5;stroke:#526679;}</style><g clip-path="url(#clip0)"><path d="M16.3 9.8V15.5C16.3 16.3 15.6 17 14.8 17H8.5 8.2 2.5C2.3 17 2.1 17 1.9 16.9H1.9C1.5 16.7 1.3 16.5 1.1 16.1V16.1C1 15.9 1 15.7 1 15.5V9.8 9.5 3.2C1 2.4 1.7 1.7 2.5 1.7H8.2" class="a"/><path d="M17 3.2C17 3.6 16.8 4.1 16.5 4.4L15.9 5 13 2.1 13.6 1.5C13.9 1.2 14.4 1 14.8 1 15.3 1 15.7 1.2 16.1 1.5L16.5 1.9C16.8 2.3 17 2.7 17 3.2Z" style="fill:#526679;stroke-linejoin:round;stroke-width:1.5;stroke:#526679"/><path d="M15.9 5L8.7 12.2C8.7 12.2 8.7 12.2 8.6 12.3 8.3 12.5 8 12.7 7.6 12.8L4.6 13.4 5.2 10.4C5.3 10 5.5 9.7 5.7 9.4 5.8 9.3 5.8 9.3 5.8 9.3L13 2.1 15.9 5Z" class="a"/></g><defs><clipPath><rect width="18" height="18" fill="white"/></clipPath></defs></svg>
