<svg width="18" height="18" viewBox="0 0 18 18" fill="none" xmlns="http://www.w3.org/2000/svg">
  <path d="M9 17.25C13.5563 17.25 17.25 13.5563 17.25 9C17.25 4.44365 13.5563 0.75 9 0.75C4.44365 0.75 0.75 4.44365 0.75 9C0.75 13.5563 4.44365 17.25 9 17.25Z" stroke="#006AFF" stroke-width="1.5" stroke-miterlimit="10" stroke-linecap="round" stroke-linejoin="round"/>
  <mask id="path-2-inside-1" fill="white">
    <path fill-rule="evenodd" clip-rule="evenodd" d="M9.71249 5.11497C10.0425 5.45997 10.635 5.46747 11.0325 5.12997C11.43 4.79247 11.4825 4.23747 11.1525 3.88497C10.8225 3.53997 10.23 3.53247 9.83249 3.86997C9.43499 4.20747 9.38249 4.76247 9.71249 5.11497ZM8.54186 8.60384C8.23028 9.29971 7.76453 10.3399 7.47747 11.2575C6.82497 13.305 8.90997 13.1475 10.785 11.3625C10.6792 11.1707 10.6375 11.1014 10.552 10.9591C10.5405 10.9401 10.5283 10.9197 10.515 10.8975C9.66747 11.6775 8.81247 12.0975 9.14997 11.055C9.32051 10.5269 9.5879 9.88977 9.94326 9.0431C10.0724 8.7355 10.2131 8.40024 10.365 8.03249C11.2875 5.82749 8.58747 6.14999 7.28247 7.57499L7.53747 8.06249C8.68497 7.04999 9.04497 7.31249 8.84247 7.90499C8.79737 8.03318 8.68614 8.28158 8.54186 8.60384Z"/>
  </mask>
  <path fill-rule="evenodd" clip-rule="evenodd" d="M9.71249 5.11497C10.0425 5.45997 10.635 5.46747 11.0325 5.12997C11.43 4.79247 11.4825 4.23747 11.1525 3.88497C10.8225 3.53997 10.23 3.53247 9.83249 3.86997C9.43499 4.20747 9.38249 4.76247 9.71249 5.11497ZM8.54186 8.60384C8.23028 9.29971 7.76453 10.3399 7.47747 11.2575C6.82497 13.305 8.90997 13.1475 10.785 11.3625C10.6792 11.1707 10.6375 11.1014 10.552 10.9591C10.5405 10.9401 10.5283 10.9197 10.515 10.8975C9.66747 11.6775 8.81247 12.0975 9.14997 11.055C9.32051 10.5269 9.5879 9.88977 9.94326 9.0431C10.0724 8.7355 10.2131 8.40024 10.365 8.03249C11.2875 5.82749 8.58747 6.14999 7.28247 7.57499L7.53747 8.06249C8.68497 7.04999 9.04497 7.31249 8.84247 7.90499C8.79737 8.03318 8.68614 8.28158 8.54186 8.60384Z" fill="#526679"/>
  <path d="M11.0325 5.12997L11.6797 5.89226V5.89226L11.0325 5.12997ZM9.71249 5.11497L8.98243 5.79843L8.98985 5.80619L9.71249 5.11497ZM11.1525 3.88497L11.8826 3.2015L11.8751 3.19374L11.1525 3.88497ZM9.83249 3.86997L9.18526 3.10767L9.18526 3.10767L9.83249 3.86997ZM7.47747 11.2575L8.43027 11.5611L8.43186 11.5561L7.47747 11.2575ZM8.54186 8.60384L7.62917 8.19518H7.62917L8.54186 8.60384ZM10.785 11.3625L11.4745 12.0868L12.0332 11.5549L11.6605 10.8794L10.785 11.3625ZM10.552 10.9591L11.4091 10.444L11.4091 10.444L10.552 10.9591ZM10.515 10.8975L11.3725 10.383L10.7409 9.33045L9.83777 10.1617L10.515 10.8975ZM9.14997 11.055L10.1014 11.363L10.1016 11.3623L9.14997 11.055ZM9.94326 9.0431L10.8653 9.4301L10.8653 9.4301L9.94326 9.0431ZM10.365 8.03249L9.44244 7.64653L9.44071 7.65073L10.365 8.03249ZM7.28247 7.57499L6.54499 6.89962L6.07125 7.41692L6.39637 8.03849L7.28247 7.57499ZM7.53747 8.06249L6.65137 8.52599L7.24261 9.65629L8.19909 8.81233L7.53747 8.06249ZM8.84247 7.90499L9.78582 8.23691L9.78873 8.22839L8.84247 7.90499ZM10.3853 4.36767C10.3759 4.37561 10.3643 4.37854 10.3589 4.37847C10.3577 4.37846 10.3646 4.37823 10.3785 4.38386C10.3933 4.38988 10.4145 4.40216 10.4351 4.42374L8.98985 5.80619C9.73536 6.58559 10.9359 6.52382 11.6797 5.89226L10.3853 4.36767ZM10.4225 4.56839C10.4051 4.54985 10.3891 4.52415 10.3792 4.49416C10.3696 4.4651 10.3679 4.43857 10.3699 4.4177C10.374 4.37464 10.3925 4.36154 10.3853 4.36767L11.6797 5.89226C12.4552 5.23381 12.6527 4.02422 11.8825 3.20154L10.4225 4.56839ZM10.4797 4.63226C10.4891 4.62432 10.5007 4.6214 10.506 4.62146C10.5073 4.62148 10.5004 4.6217 10.4865 4.61607C10.4717 4.61006 10.4505 4.59778 10.4298 4.57619L11.8751 3.19374C11.1296 2.41434 9.92909 2.47611 9.18526 3.10767L10.4797 4.63226ZM10.4425 4.43154C10.4599 4.45009 10.4758 4.47579 10.4857 4.50577C10.4953 4.53484 10.4971 4.56136 10.4951 4.58224C10.491 4.6253 10.4725 4.63839 10.4797 4.63226L9.18526 3.10767C8.40975 3.76612 8.2123 4.97571 8.98247 5.79839L10.4425 4.43154ZM8.43186 11.5561C8.69815 10.7049 9.13796 9.71955 9.45455 9.01249L7.62917 8.19518C7.3226 8.87986 6.83091 9.97496 6.52309 10.9589L8.43186 11.5561ZM10.0955 10.6382C9.68594 11.0281 9.27938 11.3148 8.92352 11.5001C8.55406 11.6925 8.29702 11.746 8.17367 11.7472C8.06862 11.7482 8.23346 11.7259 8.33439 11.912C8.39388 12.0217 8.29872 11.9739 8.43026 11.5611L6.52468 10.9539C6.32998 11.5648 6.25075 12.2652 6.57626 12.8654C6.9432 13.5421 7.62413 13.7527 8.19314 13.7471C8.74386 13.7418 9.31885 13.5492 9.84728 13.274C10.3893 12.9917 10.9465 12.5894 11.4745 12.0868L10.0955 10.6382ZM9.69489 11.4743C9.77681 11.6106 9.81168 11.6685 9.90939 11.8456L11.6605 10.8794C11.5466 10.673 11.4982 10.5922 11.4091 10.444L9.69489 11.4743ZM9.65748 11.412C9.671 11.4345 9.68345 11.4552 9.6949 11.4743L11.4091 10.444C11.3976 10.4249 11.3855 10.4048 11.3725 10.383L9.65748 11.412ZM8.19858 10.747C8.14257 10.92 8.0963 11.1068 8.08045 11.2961C8.06555 11.474 8.06963 11.7425 8.20135 12.0151C8.35518 12.3333 8.6334 12.5525 8.95903 12.6369C9.23746 12.7091 9.48589 12.6675 9.63985 12.6275C9.94755 12.5474 10.2376 12.3762 10.4614 12.2231C10.7041 12.057 10.9542 11.8523 11.1922 11.6333L9.83777 10.1617C9.65203 10.3326 9.47736 10.473 9.33202 10.5724C9.16769 10.6849 9.10614 10.6997 9.13634 10.6919C9.15155 10.6879 9.27974 10.6539 9.46114 10.701C9.68975 10.7603 9.89414 10.9215 10.002 11.1447C10.0878 11.3222 10.0738 11.4586 10.0735 11.463C10.0722 11.4787 10.073 11.4506 10.1014 11.363L8.19858 10.747ZM9.02118 8.65609C8.67238 9.48715 8.38501 10.1697 8.19836 10.7477L10.1016 11.3623C10.256 10.8841 10.5034 10.2924 10.8653 9.4301L9.02118 8.65609ZM9.44071 7.65073C9.29004 8.0155 9.15037 8.34829 9.02118 8.6561L10.8653 9.4301C10.9944 9.12271 11.1361 8.78498 11.2892 8.41425L9.44071 7.65073ZM8.01995 8.25036C8.24721 8.0022 8.54905 7.78926 8.86574 7.64212C9.19034 7.4913 9.46769 7.43829 9.63569 7.44222C9.81811 7.44648 9.68267 7.49661 9.58286 7.31781C9.50327 7.17523 9.62878 7.20118 9.44245 7.64654L11.2875 8.41844C11.5624 7.7613 11.6964 7.00069 11.3292 6.34295C10.9418 5.649 10.2228 5.45538 9.68237 5.44276C8.62591 5.4181 7.35971 6.00998 6.54499 6.89962L8.01995 8.25036ZM8.42357 7.59899L8.16857 7.11149L6.39637 8.03849L6.65137 8.52599L8.42357 7.59899ZM9.78873 8.22839C9.86335 8.01006 9.94799 7.66188 9.85507 7.29298C9.8035 7.08828 9.68929 6.85188 9.46654 6.66366C9.24187 6.47381 8.98371 6.39801 8.75916 6.38385C8.36047 6.3587 8.00474 6.51957 7.76183 6.65689C7.48825 6.81155 7.19288 7.03292 6.87585 7.31265L8.19909 8.81233C8.45581 8.58581 8.63575 8.46031 8.74608 8.39793C8.88708 8.31822 8.82385 8.3919 8.63328 8.37988C8.51279 8.37228 8.3376 8.32812 8.17568 8.1913C8.01569 8.0561 7.94402 7.89411 7.91566 7.78153C7.86913 7.59685 7.92284 7.50367 7.89621 7.58158L9.78873 8.22839ZM9.45455 9.01249C9.58736 8.71586 9.72301 8.4153 9.78578 8.23689L7.89916 7.57308C7.87172 7.65106 7.78492 7.84731 7.62917 8.19518L9.45455 9.01249Z" fill="#006AFF" mask="url(#path-2-inside-1)"/>
</svg>
