<svg width="100%" height="100%" viewBox="0 0 32 32" fill="none" xmlns="http://www.w3.org/2000/svg">
<g clip-path="url(#clip0)">
<path d="M21.8799 21.8805L26.1199 26.1205" stroke="#E02E2E" stroke-width="1.5" stroke-miterlimit="10" stroke-linecap="round" stroke-linejoin="round"/>
<path d="M26.1199 21.8805L21.8799 26.1205" stroke="#E02E2E" stroke-width="1.5" stroke-miterlimit="10" stroke-linecap="round" stroke-linejoin="round"/>
<path d="M24 31.0005C27.866 31.0005 31 27.8665 31 24.0005C31 20.1345 27.866 17.0005 24 17.0005C20.134 17.0005 17 20.1345 17 24.0005C17 27.8665 20.134 31.0005 24 31.0005Z" stroke="#E02E2E" stroke-width="1.5" stroke-miterlimit="10" stroke-linecap="round" stroke-linejoin="round"/>
<path d="M24 31.0005C27.866 31.0005 31 27.8665 31 24.0005C31 20.1345 27.866 17.0005 24 17.0005C20.134 17.0005 17 20.1345 17 24.0005C17 27.8665 20.134 31.0005 24 31.0005Z" stroke="#E02E2E" stroke-width="1.5" stroke-miterlimit="10" stroke-linecap="round" stroke-linejoin="round"/>
<path d="M12.04 23.0005H7C5.9 23.0005 5 22.1005 5 21.0005V7.00049C5 5.90049 5.9 5.00049 7 5.00049H25C26.1 5.00049 27 5.90049 27 7.00049V17.6805" stroke="#E02E2E" stroke-width="1.5" stroke-miterlimit="10" stroke-linecap="round" stroke-linejoin="round"/>
<path d="M1 19.0005V3.00049C1 1.90049 1.9 1.00049 3 1.00049H23" stroke="#E02E2E" stroke-width="1.5" stroke-miterlimit="10" stroke-linecap="round" stroke-linejoin="round"/>
<path d="M27 10.0005H5V12.0005H27V10.0005Z" fill="#E02E2E" stroke="#E02E2E" stroke-width="1.5" stroke-miterlimit="10" stroke-linecap="round" stroke-linejoin="round"/>
<path d="M9 19.0005H14" stroke="#E02E2E" stroke-width="1.5" stroke-miterlimit="10" stroke-linecap="round" stroke-linejoin="round"/>
</g>
<defs>
<clipPath id="clip0">
<rect width="32" height="32" fill="white" transform="translate(0 0.000488281)"/>
</clipPath>
</defs>
</svg>
