<svg xmlns="http://www.w3.org/2000/svg" width="18" height="18" viewBox="0 0 18 18" fill="none"><circle cx="9" cy="9" r="8" style="fill:#53BC6A;stroke-width:2;stroke:white"/><path d="M8.6 5.1C8.7 4.7 9.3 4.7 9.4 5.1L10.1 7.1C10.1 7.3 10.3 7.4 10.5 7.4L12.6 7.4C13 7.4 13.1 7.9 12.8 8.2L11.1 9.4C11 9.6 10.9 9.7 11 9.9L11.6 11.9C11.7 12.3 11.3 12.6 11 12.4L9.2 11.2C9.1 11.1 8.9 11.1 8.8 11.2L7 12.4C6.7 12.6 6.3 12.3 6.4 11.9L7 9.9C7.1 9.7 7 9.6 6.9 9.4L5.2 8.2C4.9 7.9 5 7.4 5.4 7.4L7.5 7.4C7.7 7.4 7.9 7.3 7.9 7.1L8.6 5.1Z" fill="white"/></svg>
