<svg xmlns="http://www.w3.org/2000/svg" width="32" height="32" viewBox="0 0 32 32" fill="none"><style>.a{stroke-linejoin:round;stroke-width:1.5;stroke:#006AFF;}</style><path d="M29.6 14.9V28.3C29.6 29.8 28.4 31 26.9 31H3.7C2.2 31 1 29.8 1 28.3V5.1C1 3.6 2.2 2.4 3.7 2.4H17.1" class="a"/><path d="M31.2 5.1C31.2 6 30.8 6.8 30.2 7.4L29.1 8.5 23.7 3.1 24.8 2C25.4 1.4 26.2 1 27.1 1 28 1 28.8 1.4 29.4 2L30.2 2.8C30.8 3.4 31.2 4.2 31.2 5.1Z" style="fill:#006AFF;stroke-linejoin:round;stroke-width:1.5;stroke:#006AFF"/><path d="M29.1 8.5L15.7 21.9C15.6 22 15.6 22.1 15.5 22.1 15 22.6 14.3 22.9 13.6 23.1L8 24.2 9.1 18.6C9.3 17.9 9.6 17.2 10.1 16.7 10.1 16.6 10.2 16.6 10.2 16.5L23.7 3.1 29.1 8.5Z" class="a"/></svg>
