<svg width="100%" height="100%" viewBox="0 0 18 18" fill="none" xmlns="http://www.w3.org/2000/svg">
<path d="M0.999986 6.09088L15.5454 6.09088L15.5454 4.63634L0.999986 4.63634L0.999986 6.09088Z" fill="#526679" stroke="#526679" stroke-width="1.5" stroke-miterlimit="10" stroke-linecap="round" stroke-linejoin="round"/>
<path d="M4.63636 12.6364H2.45455C1.65455 12.6364 1 11.9818 1 11.1818V2.45455C1 1.65455 1.65455 1 2.45455 1H14.0909C14.8909 1 15.5455 1.65455 15.5455 2.45455V9.39273" stroke="#526679" stroke-width="1.5" stroke-miterlimit="10" stroke-linecap="round" stroke-linejoin="round"/>
<path d="M12.6364 17C15.0463 17 17 15.0463 17 12.6363C17 10.2264 15.0463 8.27271 12.6364 8.27271C10.2264 8.27271 8.27274 10.2264 8.27274 12.6363C8.27274 15.0463 10.2264 17 12.6364 17Z" stroke="#526679" stroke-width="1.5" stroke-miterlimit="10" stroke-linecap="round" stroke-linejoin="round"/>
<path d="M14.8182 12.6364H10.4546" stroke="#526679" stroke-width="1.5" stroke-miterlimit="10" stroke-linecap="round" stroke-linejoin="round"/>
</svg>
