<svg xmlns="http://www.w3.org/2000/svg" width="100" height="100" viewBox="0 0 48 48" fill="none"><style>.a{fill:#006AFF;stroke-linejoin:round;stroke-width:1.5;stroke:#006AFF;}.b{stroke-linejoin:round;stroke-width:1.5;stroke:#006AFF;}</style><g clip-path="url(#clip0)"><path d="M18.4 14.6C15.6 18.7 13.6 22.6 12.5 25.2 6.4 20.7 1.5 19 1.5 19 1.5 19 8.8 11.7 18.4 14.6Z" class="a"/><path d="M29 46.5C29 46.5 27.4 41.6 22.8 35.5 25.4 34.4 29.3 32.4 33.5 29.6 36.3 39.2 29 46.5 29 46.5Z" class="a"/><path d="M26.3 21.8L12.5 35.5" class="b"/><path d="M34.5 17.4C36.6 17.4 38.4 15.7 38.4 13.5 38.4 11.4 36.6 9.6 34.5 9.6 32.4 9.6 30.6 11.4 30.6 13.5 30.6 15.7 32.4 17.4 34.5 17.4Z" class="b"/><path d="M1.5 46.5C1.5 46.5 4.7 27.5 12.4 29.9L15.2 32.8 18.1 35.6C20.5 43.4 1.5 46.5 1.5 46.5Z" class="b"/><path d="M25 6.5C33.3-1.6 45.5 2.5 45.5 2.5 45.5 2.5 49.6 14.9 41.4 23.2 31.7 32.8 19.4 36.9 19.4 36.9L15.3 32.8 11.1 28.7C11.1 28.7 13.4 21.9 18.4 14.6" class="b"/></g><defs><clipPath><rect width="48" height="48" fill="white"/></clipPath></defs></svg>
