<svg xmlns="http://www.w3.org/2000/svg" width="20" height="14" viewBox="0 0 20 14" fill="none"><path d="M18.1 0H1.9C0.9 0 0 0.8 0 1.9V12.1C0 13.2 0.9 14 1.9 14H18.1C19.1 14 20 13.2 20 12.1V1.9C20 0.8 19.1 0 18.1 0Z" fill="#FFA200"/><path d="M17.1 6.9H16.9V6.1H17.1C17.4 6.1 17.6 6.3 17.6 6.5 17.6 6.8 17.4 6.9 17.1 6.9ZM18.1 6.5C18.1 6 17.8 5.7 17.2 5.7H16.4V8.3H16.9V7.2H17L17.7 8.3H18.3L17.5 7.2C17.9 7.2 18.1 6.8 18.1 6.5ZM14.6 8.3H16.1V7.9H15.1V7.2H16V6.7H15.1V6.1H16.1V5.7H14.6V8.3ZM13.1 7.5L12.4 5.7H11.9L13 8.4H13.3L14.4 5.7H13.8L13.1 7.5ZM7 7C7 7.7 7.6 8.4 8.3 8.4 8.6 8.4 8.8 8.3 9 8.2V7.6C8.9 7.8 8.6 7.9 8.4 7.9 7.9 7.9 7.5 7.6 7.5 7.1V7C7.5 6.6 7.9 6.2 8.4 6.1 8.6 6.1 8.9 6.3 9 6.4V5.8C8.8 5.7 8.6 5.7 8.4 5.7 7.6 5.6 7 6.3 7 7ZM6 6.7C5.7 6.6 5.6 6.5 5.6 6.4 5.7 6.2 5.8 6.1 6 6.1 6.2 6.1 6.3 6.2 6.4 6.3L6.7 5.9C6.5 5.8 6.2 5.6 5.9 5.6 5.5 5.6 5.2 5.9 5.1 6.3V6.4C5.1 6.7 5.3 6.9 5.8 7.1 5.9 7.1 6 7.2 6.1 7.2 6.2 7.3 6.3 7.4 6.3 7.5 6.3 7.7 6.1 7.9 5.9 7.9H5.9C5.6 7.9 5.4 7.7 5.3 7.5L5 7.8C5.2 8.2 5.6 8.3 5.9 8.3 6.4 8.4 6.8 8 6.8 7.5V7.5C6.8 7.1 6.6 6.9 6 6.7ZM4.3 8.3H4.8V5.7H4.3V8.3ZM3.3 7.7C3.1 7.8 2.8 7.9 2.6 7.9H2.4V6.1H2.6C2.8 6.1 3.1 6.2 3.3 6.3 3.4 6.5 3.5 6.8 3.5 7 3.5 7.2 3.4 7.5 3.3 7.7ZM2.7 5.7H1.9V8.3H2.7C3 8.3 3.3 8.2 3.6 8 3.9 7.7 4.1 7.4 4.1 7 4.1 6.3 3.5 5.7 2.8 5.7H2.7ZM10.5 5.6C9.8 5.6 9.2 6.2 9.2 7 9.2 7.7 9.8 8.3 10.5 8.4 11.3 8.4 11.9 7.8 12 7 11.9 6.3 11.3 5.6 10.5 5.6Z" fill="white"/></svg>
