<svg xmlns="http://www.w3.org/2000/svg" width="32" height="32" viewBox="0 0 32 32" fill="none"><style>.a{fill:#006AFF;stroke-linejoin:round;stroke-width:1.5;stroke:#006AFF;}.b{stroke-linejoin:round;stroke-width:1.5;stroke:#006AFF;}</style><path d="M3.3 7.6H6.8V13.4L1.7 8.3C2.1 7.9 2.7 7.6 3.3 7.6Z" class="a"/><path d="M31 9.9V26.1C31 27.4 30 28.4 28.7 28.4H3.3C2 28.4 1 27.4 1 26.1V9.9C1 8.7 2 7.6 3.3 7.6H6.8V13.4L11.4 18 14.4 21C15.3 21.9 16.7 21.9 17.6 21L20.6 18 25.2 13.4V7.6H28.7C30 7.6 31 8.7 31 9.9Z" class="b"/><path d="M30.3 8.3L25.2 13.4V7.6H28.7C29.3 7.6 29.9 7.9 30.3 8.3Z" class="a"/><path d="M30.3 27.7L24.1 21.5" class="b"/><path d="M7.9 21.5L1.7 27.7" class="b"/><path d="M25.2 5.3V13.4L20.6 18 17.6 21C16.7 21.9 15.3 21.9 14.4 21L11.4 18 6.8 13.4V5.3C6.8 4 7.8 3 9.1 3H22.9C24.2 3 25.2 4.1 25.2 5.3Z" class="b"/><path d="M11.4 8.8H20.6" class="b"/><path d="M12.5 13.4H19.5" class="b"/></svg>
