<svg xmlns="http://www.w3.org/2000/svg" width="32" height="32" viewBox="0 0 32 32" fill="none"><style>.a{stroke-linejoin:round;stroke-width:1.5;stroke:#E02E2E;}</style><g clip-path="url(#clip0)"><path d="M21.9 21.9L26.1 26.1" class="a"/><path d="M26.1 21.9L21.9 26.1" class="a"/><path d="M24 31C27.9 31 31 27.9 31 24 31 20.1 27.9 17 24 17 20.1 17 17 20.1 17 24 17 27.9 20.1 31 24 31Z" class="a"/><path d="M24 31C27.9 31 31 27.9 31 24 31 20.1 27.9 17 24 17 20.1 17 17 20.1 17 24 17 27.9 20.1 31 24 31Z" class="a"/><path d="M12 23H7C5.9 23 5 22.1 5 21V7C5 5.9 5.9 5 7 5H25C26.1 5 27 5.9 27 7V17.7" class="a"/><path d="M1 19V3C1 1.9 1.9 1 3 1H23" class="a"/><path d="M27 10H5V12H27V10Z" style="fill:#E02E2E;stroke-linejoin:round;stroke-width:1.5;stroke:#E02E2E"/><path d="M9 19H14" class="a"/></g><defs><clipPath><rect width="32" height="32" fill="white"/></clipPath></defs></svg>
