<svg xmlns="http://www.w3.org/2000/svg" width="24" height="18" viewBox="0 0 24 18" fill="none"><path d="M21.7 0H2.3C1 0 0 1.1 0 2.4V15.6C0 16.9 1 18 2.3 18H21.7C23 18 24 16.9 24 15.6V2.4C24 1.1 23 0 21.7 0Z" fill="#007ECD"/><path d="M21.1 12.2H20V11.7H20.9C20.9 11.7 21.3 11.7 21.3 11.5 21.3 11.3 20.8 11.3 20.8 11.3 20.8 11.3 20 11.4 20 10.6 20 9.8 20.7 9.8 20.7 9.8H21.8V10.4H20.9C20.9 10.4 20.6 10.3 20.6 10.6 20.6 10.8 21 10.7 21 10.7 21 10.7 21.9 10.7 21.9 11.4 21.9 12.2 21.4 12.2 21.2 12.2 21.1 12.2 21.1 12.2 21.1 12.2ZM15.8 12.2V9.8H17.7V10.4H16.4V10.8H17.6V11.3H16.4V11.7H17.7V12.2H15.8ZM19 12.2H17.9V11.7H18.9C18.9 11.7 19.2 11.7 19.2 11.5 19.2 11.3 18.7 11.3 18.7 11.3 18.7 11.3 17.9 11.4 17.9 10.6 17.9 9.8 18.6 9.8 18.6 9.8H19.8V10.4H18.8C18.8 10.4 18.5 10.3 18.5 10.6 18.5 10.8 19 10.7 19 10.7 19 10.7 19.9 10.7 19.9 11.4 19.9 12.2 19.3 12.2 19.1 12.2 19 12.2 19 12.2 19 12.2ZM11 12.2H10.5L9.9 11.5 9.2 12.2H8.9 7V9.8H8.9 9.2L9.9 10.6 10.5 9.8H11V9.8H12.4C12.4 9.8 13.2 9.7 13.2 10.5 13.2 11.2 12.9 11.5 12.2 11.5H11.6V12.2H11ZM10.3 11L11 11.9V10.2L10.3 11ZM7.6 11.7H8.9L9.5 11 8.9 10.4H7.6V10.8H8.8V11.3H7.6V11.7ZM11.6 10.8H12.2C12.4 10.8 12.5 10.7 12.5 10.6 12.5 10.5 12.4 10.4 12.2 10.4H11.6V10.8ZM15 12.2V11.8C15 11.8 14.9 11.4 14.6 11.4H14V12.2H13.4V9.8H14.8C14.8 9.8 15.6 9.7 15.6 10.5 15.6 10.9 15.2 11.1 15.2 11.1 15.2 11.1 15.5 11.2 15.5 11.6V12.2H15ZM14 10.8H14.6C14.8 10.8 14.9 10.7 14.9 10.6 14.9 10.5 14.8 10.4 14.6 10.4H14V10.8ZM13.5 8.9H14.1V6.5H13.5V8.9ZM9 8.9V6.5H10.8V7.1H9.6V7.4H10.8V8H9.6V8.4H10.8V8.9H9ZM8 8.9V7.2L7.3 8.9H6.8L6.1 7.3V8.9H5.5 5.5 4.9L4.7 8.4H3.6L3.4 8.9H2.7L3.7 6.5H4.6L5.5 8.7V6.5H6.4L7 8 7.7 6.5H8.6V8.9H8ZM3.9 7.8H4.4L4.1 7.1 3.9 7.8ZM19.7 8.9L18.7 7.3V8.9H18.2 18.1 17.6L17.3 8.4H16.3L16.1 8.9H15.5 15.4 15.1C15.1 8.9 14.3 8.8 14.3 7.8 14.3 6.4 15.2 6.5 15.3 6.5L16 6.5V7L15.4 7.1C15.4 7.1 15 7.1 15 7.6 15 7.6 15 7.7 15 7.7 15 8.6 15.6 8.3 15.7 8.3L16.4 6.5H17.2L18.1 8.7V6.5H19L19.9 8.1V6.5H20.5V8.9H19.7ZM16.5 7.8H17.1L16.8 7.1 16.5 7.8ZM12.7 8.9V8.4C12.7 8.4 12.6 8.1 12.3 8.1H11.7V8.9H11.1V6.5H12.5C12.5 6.5 13.3 6.4 13.3 7.2 13.3 7.6 13 7.8 13 7.8 13 7.8 13.3 7.9 13.3 8.3V8.9H12.7ZM11.7 7.5H12.3C12.5 7.5 12.6 7.4 12.6 7.3 12.6 7.2 12.5 7.1 12.3 7.1H11.7V7.5Z" fill="white"/></svg>
