<svg xmlns="http://www.w3.org/2000/svg" width="32" height="32" viewBox="0 0 32 32" fill="none"><style>.a{stroke-linejoin:round;stroke-width:1.5;stroke:#006AFF;}</style><path d="M24 20V24L26 26" class="a"/><path d="M24 31C27.9 31 31 27.9 31 24 31 20.1 27.9 17 24 17 20.1 17 17 20.1 17 24 17 27.9 20.1 31 24 31Z" class="a"/><path d="M14.3 31H5C2.8 31 1 29.2 1 27V14.5C1 13.4 1.9 12.5 3 12.5H19.8C19.9 12.5 20.1 12.6 20.3 12.6 21.1 12.8 21.8 13.6 21.8 14.5V17.4" class="a"/><path d="M11.4 1C8.2 1 5.6 3.6 5.6 6.8V12.5H17.2V6.8C17.2 3.6 14.6 1 11.4 1Z" class="a"/><path d="M14.5 20.2C14.5 18.5 13.1 17.2 11.4 17.2 9.7 17.2 8.3 18.5 8.3 20.2 8.3 21.4 8.9 22.4 9.8 22.9V24.9C9.8 25.7 10.5 26.4 11.4 26.4 12.2 26.4 12.9 25.7 12.9 24.9V22.9C13.8 22.4 14.5 21.4 14.5 20.2Z" fill="#006AFF"/></svg>
