<svg xmlns="http://www.w3.org/2000/svg" width="18" height="18" viewBox="0 0 18 18" fill="none"><style>.a{stroke-linejoin:round;stroke-width:1.5;stroke:#526679;}.b{fill:#526679;stroke-linejoin:round;stroke-width:1.5;stroke:#526679;}</style><path d="M17 6.8V15.5C17 16.3 16.3 17 15.5 17H2.5C1.7 17 1 16.3 1 15.5V6.8C1 6.4 1.2 6.1 1.4 5.8 1.7 5.5 2.1 5.4 2.5 5.4H3.9V8.3L8 12.3C8.5 12.9 9.5 12.9 10 12.3L14.1 8.3V5.4H15.5C15.9 5.4 16.3 5.5 16.6 5.8 16.8 6.1 17 6.4 17 6.8Z" class="a"/><path d="M16.6 16.6L13.6 13.5" class="a"/><path d="M4.4 13.5L1.4 16.6" class="a"/><path d="M2.5 5.4H3.9V8.3L1.4 5.8C1.7 5.5 2.1 5.4 2.5 5.4Z" class="b"/><path d="M16.6 5.8L14.1 8.3V5.4H15.5C15.9 5.4 16.3 5.5 16.6 5.8Z" class="b"/><path d="M14.1 2.5V8.3L10 12.3C9.5 12.9 8.5 12.9 8 12.3L3.9 8.3V2.5C3.9 1.7 4.6 1 5.4 1H12.6C13.4 1 14.1 1.7 14.1 2.5Z" class="a"/><path d="M6.8 3.9H11.2" class="a"/><path d="M6.8 6.8H11.2" class="a"/></svg>
