<svg width="24" height="24" viewBox="0 0 24 24" fill="none" xmlns="http://www.w3.org/2000/svg">
<g clip-path="url(#clip0)">
<path d="M14.8552 5.0885V9.78304L16.4958 10.8161C16.5391 10.8287 16.6328 10.8296 16.6761 10.8161L23.7368 6.05571C23.7368 5.49233 23.2113 5.0885 22.9147 5.0885H14.8552Z" fill="#0072C6"/>
<path d="M14.8551 11.5344L16.3524 12.5629C16.5633 12.718 16.8175 12.5629 16.8175 12.5629C16.5642 12.718 23.7376 7.95312 23.7376 7.95312V16.5814C23.7376 17.5207 23.1364 17.9146 22.4603 17.9146H14.8542V11.5344H14.8551Z" fill="#0072C6"/>
<path d="M7.10311 9.37012C6.59291 9.37012 6.18637 9.60989 5.88621 10.0885C5.58604 10.5672 5.4355 11.2009 5.4355 11.9896C5.4355 12.7901 5.58604 13.4228 5.88621 13.888C6.18637 14.354 6.58029 14.5857 7.06705 14.5857C7.56914 14.5857 7.96756 14.3594 8.26142 13.9069C8.55528 13.4544 8.70311 12.8261 8.70311 12.023C8.70311 11.1856 8.56068 10.5338 8.27494 10.0678C7.98919 9.60268 7.59888 9.37012 7.10311 9.37012Z" fill="#0072C6"/>
<path d="M0 2.70423V21.0704L13.9718 24V0L0 2.70423ZM9.34941 14.9922C8.75899 15.7692 7.98918 16.1587 7.0391 16.1587C6.11335 16.1587 5.35977 15.7819 4.77656 15.0292C4.19425 14.2756 3.9022 13.2949 3.9022 12.0852C3.9022 10.8079 4.19786 9.77488 4.79008 8.98614C5.38231 8.19741 6.16653 7.80259 7.14276 7.80259C8.0649 7.80259 8.81127 8.17938 9.38006 8.93476C9.94975 9.69014 10.2346 10.6853 10.2346 11.9211C10.2355 13.1912 9.93983 14.2152 9.34941 14.9922Z" fill="#0072C6"/>
</g>
<defs>
<clipPath id="clip0">
<rect width="24" height="24" fill="white"/>
</clipPath>
</defs>
</svg>
