<svg xmlns="http://www.w3.org/2000/svg" width="14" height="14" viewBox="0 0 14 14" fill="none"><style>.a{fill:#006AFF;}</style><path d="M7 13C10.3 13 13 10.3 13 7 13 3.7 10.3 1 7 1 3.7 1 1 3.7 1 7 1 10.3 3.7 13 7 13Z" style="stroke-linejoin:round;stroke-width:1.5;stroke:#006AFF"/><path d="M7 8.6C6.7 8.6 6.5 8.4 6.5 8.1 6.5 7 7.1 6.6 7.5 6.3 7.9 6 8.1 5.9 8.1 5.4 8.1 5.1 8 4.3 7 4.3 6 4.3 5.9 5.2 5.9 5.4 5.9 5.7 5.7 5.9 5.4 5.9 5.1 5.9 4.8 5.7 4.8 5.4 4.8 4.5 5.4 3.2 7 3.2 8.6 3.2 9.2 4.5 9.2 5.4 9.2 6.5 8.6 6.9 8.1 7.2 7.7 7.4 7.5 7.6 7.5 8.1 7.5 8.4 7.3 8.6 7 8.6Z" class="a"/><path d="M7 10.8C7.5 10.8 7.8 10.5 7.8 10 7.8 9.5 7.5 9.2 7 9.2 6.5 9.2 6.2 9.5 6.2 10 6.2 10.5 6.5 10.8 7 10.8Z" class="a"/></svg>
